SplineFontDB: 3.2
FontName: ayuta-regular
FullName: ayuta
FamilyName: ayuta
Weight: Regular
Copyright: Copyright 2024 The Ayuta Project Authors (github.com/mitradranirban)
Version: 1.0
StyleMapFamilyName: 
ItalicAngle: 0
UnderlinePosition: 0
UnderlineWidth: 0
Ascent: 1638
Descent: 410
InvalidEm: 1
UFOAscent: 1638.4
UFODescent: -512
LayerCount: 2
Layer: 0 0 "Back" 1
Layer: 1 0 "public.default" 0 "glyphs"
StyleMap: 0x0000
FSType: 0
OS2Version: 0
OS2_WeightWidthSlopeOnly: 0
OS2_UseTypoMetrics: 0
CreationTime: 1728398236
ModificationTime: 1728398664
PfmFamily: 16
TTFWeight: 400
TTFWidth: 5
LineGap: 0
VLineGap: 0
OS2TypoAscent: 0
OS2TypoAOffset: 1
OS2TypoDescent: 0
OS2TypoDOffset: 1
OS2TypoLinegap: 0
OS2WinAscent: 0
OS2WinAOffset: 1
OS2WinDescent: 0
OS2WinDOffset: 1
HheadAscent: 0
HheadAOffset: 1
HheadDescent: 0
HheadDOffset: 1
OS2CapHeight: 1536
OS2XHeight: 1024
MarkAttachClasses: 1
DEI: 91125
LangName: 1033 "" "" "" "" "" "" "" "" "Dr Anirban Mitra" "Dr Anirban Mitra" "A Variable Hangul font created using rectangular components" "https://fonts.atipra.in" "https://github.com/mitradranirban" "Copyright 2024 The Samaano Project Authors (https://github.com/mitradranirban/samaano-fonts) This Font Software is licensed under the SIL Open Font License, Version 1.1.This license is available with a FAQ at: http://scripts.sil.org/OFL" "http://scripts.sil.org/OFL"
PickledDataWithLists: "(dp0
Vxyz.fontra.lineMetricsHorizontalLayout.zones
p1
(dp2
Vascender
p3
I16
sVbaseline
p4
I-16
sVcapHeight
p5
I16
sVdescender
p6
I-16
sVxHeight
p7
I16
ss."
Encoding: UnicodeFull
UnicodeInterp: korean
NameList: AGL For New Fonts
DisplaySize: -96
AntiAlias: 1
FitToEm: 0
WinInfo: 0 13 5
BeginPrivate: 0
EndPrivate
BeginChars: 1114112 664

StartChar: uni0000
Encoding: 0 0 2
Width: 1024
VWidth: 0
Flags: HW
LayerCount: 2
Fore
SplineSet
43 1589 m 1
 43 -1 l 1
 991 -1 l 1
 991 1589 l 1
 43 1589 l 1
67 -49.1378786675 m 1
 67 1634.98411668 l 1
 513.298006858 817.338913274 l 1
 67 -49.1378786675 l 1
143.757234791 29 m 1
 522.934075901 796.301808263 l 1
 904.347948521 29 l 1
 143.757234791 29 l 1
172.18456752 1573 m 1
 883.092063946 1573 l 1
 524.821725018 841.813050428 l 1
 172.18456752 1573 l 1
964 1650.63609977 m 1
 964 -53.9245199283 l 1
 535.007501335 822.315477345 l 1
 964 1650.63609977 l 1
EndSplineSet
EndChar

StartChar: exclam
Encoding: 33 33 3
Width: 1024
VWidth: 0
Flags: HW
LayerCount: 2
Fore
SplineSet
465 240 m 1
 465 42 l 1
 559 42 l 1
 559 240 l 1
 465 240 l 1
475 1495 m 1
 475 527 l 1
 553 527 l 1
 553 1495 l 1
 475 1495 l 1
EndSplineSet
EndChar

StartChar: quotedbl
Encoding: 34 34 4
Width: 1024
VWidth: 0
Flags: W
HStem: 1351 198
LayerCount: 2
Fore
SplineSet
265 1549 m 1
 265 1351 l 1
 359 1351 l 1
 359 1549 l 1
 265 1549 l 1
665 1549 m 1
 665 1351 l 1
 759 1351 l 1
 759 1549 l 1
 665 1549 l 1
EndSplineSet
EndChar

StartChar: numbersign
Encoding: 35 35 5
Width: 1024
VWidth: 0
Flags: HW
LayerCount: 2
Fore
SplineSet
343 1322 m 1
 253 1322 l 1
 253 338 l 1
 343 338 l 1
 343 1322 l 1
781 1325 m 1
 663 1325 l 1
 663 304 l 1
 781 304 l 1
 781 1325 l 1
891 1132 m 1
 123 1132 l 1
 123 1035 l 1
 891 1035 l 1
 891 1132 l 1
901 742 m 1
 123 742 l 1
 123 617 l 1
 901 617 l 1
 901 742 l 1
EndSplineSet
EndChar

StartChar: dollar
Encoding: 36 36 6
Width: 1124
VWidth: 0
Flags: HW
LayerCount: 2
Fore
SplineSet
724 1487 m 1
 126 1487 l 1
 126 1358 l 1
 724 1358 l 1
 724 1487 l 1
281 1492 m 1
 126 1492 l 1
 126 1053 l 1
 281 1053 l 1
 281 1492 l 1
862 163 m 1
 154 163 l 1
 154 50 l 1
 862 50 l 1
 862 163 l 1
742 330 m 1
 742 50 l 1
 898 50 l 1
 898 330 l 1
 742 330 l 1
294.377929688 1003 m 1
 154.685546875 1003 l 1
 728.634765625 380 l 1
 869.252929688 380 l 1
 294.377929688 1003 l 1
587.450190906 1586 m 1
 387.872266574 1586 l 1
 387.872266574 -165 l 1
 587.450190906 -165 l 1
 587.450190906 1586 l 1
EndSplineSet
EndChar

StartChar: percent
Encoding: 37 37 7
Width: 1124
VWidth: 0
Flags: HW
LayerCount: 2
Fore
SplineSet
905.572265625 826.454101562 m 1
 78 507.498046875 l 1
 107.405273438 410.59375 l 1
 934.903320312 730.462890625 l 1
 905.572265625 826.454101562 l 1
240.46875 1098 m 1
 212.46875 1098 l 1
 212.46875 847 l 1
 240.46875 847 l 1
 240.46875 1098 l 1
540.069039231 1102 m 1
 212.46875 1102 l 1
 212.46875 1057 l 1
 540.069039231 1057 l 1
 540.069039231 1102 l 1
535.434890286 846 m 1
 212.46875 846 l 1
 212.46875 814 l 1
 535.434890286 814 l 1
 535.434890286 846 l 1
540.069039231 1102 m 1
 491.410475304 1102 l 1
 491.410475304 816 l 1
 540.069039231 816 l 1
 540.069039231 1102 l 1
607.264198941 411 m 1
 574.825156323 411 l 1
 574.825156323 160 l 1
 607.264198941 160 l 1
 607.264198941 411 l 1
886.46875 415 m 1
 574.825156323 415 l 1
 574.825156323 370 l 1
 886.46875 370 l 1
 886.46875 415 l 1
884.46875 159 m 1
 574.825156323 159 l 1
 574.825156323 127 l 1
 884.46875 127 l 1
 884.46875 159 l 1
886.46875 415 m 1
 844.46875 415 l 1
 844.46875 129 l 1
 886.46875 129 l 1
 886.46875 415 l 1
EndSplineSet
EndChar

StartChar: ampersand
Encoding: 38 38 8
Width: 1024
VWidth: 0
Flags: HW
LayerCount: 2
Fore
SplineSet
403.24541061 1512 m 1
 293.405806995 1512 l 1
 724.893837085 43.2070404308 l 1
 823.055484138 72.7900025565 l 1
 403.24541061 1512 l 1
363 1426 m 1
 779 1426 l 1
 779 1512 l 1
 363 1512 l 1
 363 1426 l 1
779 1421 m 1
 669 1421 l 1
 669 942 l 1
 779 942 l 1
 779 1421 l 1
779 1020 m 1
 133 1020 l 1
 133 868 l 1
 779 868 l 1
 779 1020 l 1
293 1020 m 1
 133 1020 l 1
 133 49 l 1
 293 49 l 1
 293 1020 l 1
891 165 m 1
 133 165 l 1
 133 31 l 1
 891 31 l 1
 891 165 l 1
EndSplineSet
EndChar

StartChar: quotesingle
Encoding: 39 39 9
Width: 1024
VWidth: 0
Flags: HW
LayerCount: 2
Fore
SplineSet
552 1471 m 1
 472 1471 l 1
 472 1289 l 1
 552 1289 l 1
 552 1471 l 1
EndSplineSet
EndChar

StartChar: parenleft
Encoding: 40 40 10
Width: 1024
VWidth: 0
Flags: HW
LayerCount: 2
Fore
SplineSet
489 998 m 1
 349 998 l 1
 349 204 l 1
 489 204 l 1
 489 998 l 1
492.690785955 1053 m 1
 618.673880876 1534.88533807 l 1
 365.385389128 1053 l 1
 492.690785955 1053 l 1
495.710372163 154 m 1
 367.702985823 154 l 1
 646.40261178 -319.951398793 l 1
 495.710372163 154 l 1
EndSplineSet
EndChar

StartChar: parenright
Encoding: 41 41 11
Width: 1024
VWidth: 0
Flags: HW
LayerCount: 2
Fore
SplineSet
653 998 m 1
 513 998 l 1
 513 204 l 1
 653 204 l 1
 653 998 l 1
638.081709611 1048 m 1
 386.135272545 1567.3181662 l 1
 507.823687727 1048 l 1
 638.081709611 1048 l 1
636.832537431 154 m 1
 507.662298386 154 l 1
 394.439002433 -312.44808544 l 1
 636.832537431 154 l 1
EndSplineSet
EndChar

StartChar: asterisk
Encoding: 42 42 12
Width: 1024
VWidth: 0
Flags: HW
LayerCount: 2
Fore
SplineSet
627 1272 m 1
 447 1272 l 1
 447 325 l 1
 627 325 l 1
 627 1272 l 1
219.183232346 1206.35300796 m 1
 100.995130942 1098.07745699 l 1
 793.98600099 394.615571052 l 1
 915.821043595 504.956741713 l 1
 219.183232346 1206.35300796 l 1
924.113845017 1079.84535684 m 1
 816.132128716 1196.19185398 l 1
 128.886154983 524.154643156 l 1
 236.867871284 407.808146015 l 1
 924.113845017 1079.84535684 l 1
EndSplineSet
EndChar

StartChar: plus
Encoding: 43 43 13
Width: 1024
VWidth: 0
Flags: HW
LayerCount: 2
Fore
SplineSet
584 1196 m 1
 409 1196 l 1
 409 190 l 1
 584 190 l 1
 584 1196 l 1
938 796 m 1
 86 796 l 1
 86 638 l 1
 938 638 l 1
 938 796 l 1
EndSplineSet
EndChar

StartChar: comma
Encoding: 44 44 14
Width: 1024
VWidth: 0
Flags: HW
LayerCount: 2
Fore
SplineSet
621 212 m 1
 423 212 l 1
 423 33 l 1
 621 33 l 1
 621 212 l 1
612.126666585 -4.75820379105 m 1
 505.335903694 92.652289386 l 1
 410.761469495 -132.563100529 l 1
 511.562377471 -174.563478852 l 1
 612.126666585 -4.75820379105 l 1
EndSplineSet
EndChar

StartChar: hyphen
Encoding: 45 45 15
Width: 1024
VWidth: 0
Flags: HW
LayerCount: 2
Fore
SplineSet
900 783 m 1
 124 783 l 1
 124 625 l 1
 900 625 l 1
 900 783 l 1
EndSplineSet
EndChar

StartChar: period
Encoding: 46 46 16
Width: 1024
VWidth: 0
Flags: HW
LayerCount: 2
Fore
SplineSet
619 221 m 1
 405 221 l 1
 405 25 l 1
 619 25 l 1
 619 221 l 1
EndSplineSet
EndChar

StartChar: slash
Encoding: 47 47 17
Width: 1024
VWidth: 0
Flags: HW
LayerCount: 2
Fore
SplineSet
858.688668451 1395.72327339 m 1
 717.306354634 1450.62172503 l 1
 165.311331549 20.2767266131 l 1
 306.693645366 -34.6217250283 l 1
 858.688668451 1395.72327339 l 1
EndSplineSet
EndChar

StartChar: zero
Encoding: 48 48 18
Width: 1124
VWidth: 0
Flags: HW
LayerCount: 2
Fore
SplineSet
365.93258427 683 m 1
 365.93258427 933 l 1
 659.405848112 933 l 1
 659.405848112 683 l 1
 365.93258427 683 l 1
245 183 m 1
 245 1384 l 1
 780 1384 l 1
 780 183 l 1
 245 183 l 1
930 32 m 1
 930 1534 l 1
 93 1534 l 1
 93 32 l 1
 930 32 l 1
EndSplineSet
EndChar

StartChar: one
Encoding: 49 49 19
Width: 1074
VWidth: 0
Flags: HW
LayerCount: 2
Fore
SplineSet
402.30078125 1498 m 1
 402.30078125 50 l 1
 551.30078125 50 l 1
 551.30078125 1498 l 1
 402.30078125 1498 l 1
496.5703125 1421.10449219 m 1
 388.265625 1492.5859375 l 1
 218 1238.11035156 l 1
 326.368164062 1165.86523438 l 1
 496.5703125 1421.10449219 l 1
EndSplineSet
EndChar

StartChar: two
Encoding: 50 50 20
Width: 1124
VWidth: 0
Flags: HW
LayerCount: 2
Fore
SplineSet
109 1498 m 1
 109 1344 l 1
 768 1344 l 1
 768 883 l 1
 116 883 l 1
 116 50 l 1
 904 50 l 1
 904 200 l 1
 269 200 l 1
 269 732 l 1
 918 732 l 1
 918 1498 l 1
 109 1498 l 1
EndSplineSet
EndChar

StartChar: three
Encoding: 51 51 21
Width: 1124
VWidth: 0
Flags: HW
LayerCount: 2
Fore
SplineSet
101 911 m 1
 101 761 l 1
 809 761 l 1
 809 192 l 1
 59 192 l 1
 59 42 l 1
 963 42 l 1
 963 1503 l 1
 89 1503 l 1
 89 1353 l 1
 807 1353 l 1
 807 911 l 1
 101 911 l 1
EndSplineSet
EndChar

StartChar: four
Encoding: 52 52 22
Width: 1124
VWidth: 0
Flags: HW
LayerCount: 2
Fore
SplineSet
91 1498 m 1
 91 786 l 1
 783 786 l 1
 783 57 l 1
 929 57 l 1
 929 1498 l 1
 780 1498 l 1
 780 936 l 1
 241 936 l 1
 241 1498 l 1
 91 1498 l 1
EndSplineSet
EndChar

StartChar: five
Encoding: 53 53 23
Width: 1124
VWidth: 0
Flags: HW
LayerCount: 2
Fore
SplineSet
822 784 m 1
 822 198 l 1
 59 198 l 1
 59 50 l 1
 977 50 l 1
 977 934 l 1
 210 934 l 1
 210 1352 l 1
 987 1352 l 1
 987 1498 l 1
 60 1498 l 1
 60 784 l 1
 822 784 l 1
EndSplineSet
EndChar

StartChar: six
Encoding: 54 54 24
Width: 1124
VWidth: 0
Flags: HW
LayerCount: 2
Fore
SplineSet
985 1498 m 1
 41 1498 l 1
 41 50 l 1
 980 50 l 1
 980 934 l 1
 194 934 l 1
 194 1348 l 1
 985 1348 l 1
 985 1498 l 1
822 784 m 1
 822 203 l 1
 200 203 l 1
 200 784 l 1
 822 784 l 1
EndSplineSet
EndChar

StartChar: seven
Encoding: 55 55 25
Width: 1124
VWidth: 0
Flags: HW
LayerCount: 2
Fore
SplineSet
54 1507 m 1
 54 1355 l 1
 814 1355 l 1
 814 50 l 1
 967 50 l 1
 967 1507 l 1
 54 1507 l 1
EndSplineSet
EndChar

StartChar: eight
Encoding: 56 56 26
Width: 1124
VWidth: 0
Flags: HW
LayerCount: 2
Fore
SplineSet
969 1498 m 1
 56 1498 l 1
 56 50 l 1
 969 50 l 1
 969 1498 l 1
817 784 m 1
 817 197 l 1
 210 197 l 1
 210 784 l 1
 817 784 l 1
818 934 m 1
 210 934 l 1
 210 1350 l 1
 818 1350 l 1
 818 934 l 1
EndSplineSet
EndChar

StartChar: nine
Encoding: 57 57 27
Width: 1124
VWidth: 0
Flags: HW
LayerCount: 2
Fore
SplineSet
831 784 m 1
 831 200 l 1
 79 200 l 1
 79 50 l 1
 977 50 l 1
 977 1504 l 1
 57 1504 l 1
 57 784 l 1
 831 784 l 1
828 934 m 1
 207 934 l 1
 207 1354 l 1
 828 1354 l 1
 828 934 l 1
EndSplineSet
EndChar

StartChar: colon
Encoding: 58 58 28
Width: 1024
VWidth: 0
Flags: HW
LayerCount: 2
Fore
SplineSet
623 405 m 1
 425 405 l 1
 425 226 l 1
 623 226 l 1
 623 405 l 1
617 1269 m 1
 401 1269 l 1
 401 1072 l 1
 617 1072 l 1
 617 1269 l 1
EndSplineSet
EndChar

StartChar: semicolon
Encoding: 59 59 29
Width: 1024
VWidth: 0
Flags: HW
LayerCount: 2
Fore
SplineSet
623 405 m 1
 425 405 l 1
 425 226 l 1
 623 226 l 1
 623 405 l 1
614.098802115 191.85634823 m 1
 507.551318753 286.165269314 l 1
 412.761469495 60.4368994708 l 1
 513.391503111 18.5077187975 l 1
 614.098802115 191.85634823 l 1
617 846 m 1
 401 846 l 1
 401 649 l 1
 617 649 l 1
 617 846 l 1
EndSplineSet
EndChar

StartChar: less
Encoding: 60 60 30
Width: 1024
VWidth: 0
Flags: HW
LayerCount: 2
Fore
SplineSet
896 979.762531559 m 1
 128 758.187959432 l 1
 128 602.31561234 l 1
 896 825.767935079 l 1
 896 979.762531559 l 1
894 304.362321585 m 1
 128 734.298596095 l 1
 128 583.811610721 l 1
 894 164.201316603 l 1
 894 304.362321585 l 1
EndSplineSet
EndChar

StartChar: equal
Encoding: 61 61 31
Width: 1024
VWidth: 0
Flags: HW
LayerCount: 2
Fore
SplineSet
895 889 m 1
 129 889 l 1
 129 749 l 1
 895 749 l 1
 895 889 l 1
895 515 m 1
 129 515 l 1
 129 375 l 1
 895 375 l 1
 895 515 l 1
EndSplineSet
EndChar

StartChar: greater
Encoding: 62 62 32
Width: 1024
VWidth: 0
Flags: HW
LayerCount: 2
Fore
SplineSet
898.679411052 601.379658768 m 1
 897.179589477 758.111013288 l 1
 125 979.807343114 l 1
 125 825.784245226 l 1
 898.679411052 601.379658768 l 1
898.857185505 582.802228371 m 1
 897.404324141 734.626240948 l 1
 127 304.327240391 l 1
 127 164.008670299 l 1
 898.857185505 582.802228371 l 1
EndSplineSet
EndChar

StartChar: question
Encoding: 63 63 33
Width: 1024
VWidth: 0
Flags: HW
LayerCount: 2
Fore
SplineSet
589 222 m 1
 393 222 l 1
 393 25 l 1
 589 25 l 1
 589 222 l 1
803 1494 m 1
 217 1494 l 1
 217 1358 l 1
 803 1358 l 1
 803 1494 l 1
807 1489 m 1
 663 1489 l 1
 663 991 l 1
 807 991 l 1
 807 1489 l 1
807 990 m 1
 393 990 l 1
 393 841 l 1
 807 841 l 1
 807 990 l 1
591 986 m 1
 393 986 l 1
 393 417 l 1
 591 417 l 1
 591 986 l 1
EndSplineSet
EndChar

StartChar: at
Encoding: 64 64 34
Width: 1024
VWidth: 0
Flags: HW
LayerCount: 2
Fore
SplineSet
895 998 m 1
 126 998 l 1
 126 904 l 1
 895 904 l 1
 895 998 l 1
765 567 m 1
 662 567 l 1
 662 25 l 1
 765 25 l 1
 765 567 l 1
704 575 m 1
 329 575 l 1
 329 469 l 1
 704 469 l 1
 704 575 l 1
450 564 m 1
 326 564 l 1
 326 37 l 1
 450 37 l 1
 450 564 l 1
768 163 m 1
 324 163 l 1
 324 25 l 1
 768 25 l 1
 768 163 l 1
164 998 m 1
 38 998 l 1
 38 -198 l 1
 164 -198 l 1
 164 998 l 1
934 -111 m 1
 36 -111 l 1
 36 -233 l 1
 934 -233 l 1
 934 -111 l 1
988 986 m 1
 887 986 l 1
 887 25 l 1
 988 25 l 1
 988 986 l 1
918 150 m 1
 759 150 l 1
 759 25 l 1
 918 25 l 1
 918 150 l 1
EndSplineSet
EndChar

StartChar: A
Encoding: 65 65 35
Width: 1124
VWidth: 0
Flags: W
LayerCount: 2
Fore
SplineSet
125 1498 m 1
 125 50 l 1
 274 50 l 1
 274 1498 l 1
 125 1498 l 1
186 1498 m 1
 186 1332 l 1
 847 1332 l 1
 847 1498 l 1
 186 1498 l 1
835 998 m 1
 204 998 l 1
 204 874 l 1
 835 874 l 1
 835 998 l 1
772 1498 m 1
 772 50 l 1
 922 50 l 1
 922 1498 l 1
 772 1498 l 1
EndSplineSet
EndChar

StartChar: B
Encoding: 66 66 36
Width: 1124
VWidth: 0
Flags: HW
LayerCount: 2
Fore
SplineSet
110 1487 m 1
 110 50 l 1
 268 50 l 1
 268 1487 l 1
 110 1487 l 1
447.194819212 1470.61816406 m 1
 447.194819212 1323.57617188 l 1
 947 1014.91015625 l 1
 947 1180.00195312 l 1
 447.194819212 1470.61816406 l 1
446.026173772 1005.63476562 m 1
 446.026173772 854.6484375 l 1
 948 1009.04589844 l 1
 948 1155.56933594 l 1
 446.026173772 1005.63476562 l 1
929 540.04296875 m 1
 378.244738262 208.465820312 l 1
 378.244738262 67.2314453125 l 1
 929 398.37890625 l 1
 929 540.04296875 l 1
456.543982731 730.1015625 m 1
 456.543982731 583.66796875 l 1
 929 424.5859375 l 1
 929 568.58203125 l 1
 456.543982731 730.1015625 l 1
387.593901781 998 m 1
 271 998 l 1
 271 845 l 1
 387.593901781 845 l 1
 387.593901781 998 l 1
398.111710739 741 m 1
 270 741 l 1
 270 592 l 1
 398.111710739 592 l 1
 398.111710739 741 l 1
325 200 m 1
 208 200 l 1
 208 50 l 1
 325 50 l 1
 325 200 l 1
387.593901781 1487 m 1
 270 1487 l 1
 270 1331 l 1
 387.593901781 1331 l 1
 387.593901781 1487 l 1
EndSplineSet
EndChar

StartChar: C
Encoding: 67 67 37
Width: 1124
VWidth: 0
Flags: W
LayerCount: 2
Fore
SplineSet
221 1487 m 1
 71 1487 l 1
 71 50 l 1
 221 50 l 1
 221 1487 l 1
953 1487 m 1
 170 1487 l 1
 170 1338 l 1
 953 1338 l 1
 953 1487 l 1
951 199 m 1
 156 199 l 1
 156 50 l 1
 951 50 l 1
 951 199 l 1
EndSplineSet
EndChar

StartChar: D
Encoding: 68 68 38
Width: 1124
VWidth: 0
Flags: W
LayerCount: 2
Fore
SplineSet
259 1498 m 1
 107 1498 l 1
 107 50 l 1
 259 50 l 1
 259 1498 l 1
916 1013.25683594 m 1
 447.999252281 1466.98242188 l 1
 447.999252281 1343.0546875 l 1
 916 836.356445312 l 1
 916 1013.25683594 l 1
913 929.255859375 m 1
 457.494691192 206.78125 l 1
 457.494691192 101.598632812 l 1
 913 776.059570312 l 1
 913 929.255859375 l 1
388.652759085 1498 m 1
 271 1498 l 1
 271 1349 l 1
 388.652759085 1349 l 1
 388.652759085 1498 l 1
398.148197996 200 m 1
 279 200 l 1
 279 50 l 1
 398.148197996 50 l 1
 398.148197996 200 l 1
EndSplineSet
EndChar

StartChar: E
Encoding: 69 69 39
Width: 1124
VWidth: 0
Flags: W
LayerCount: 2
Fore
SplineSet
253 1487 m 1
 103 1487 l 1
 103 50 l 1
 253 50 l 1
 253 1487 l 1
900 1487 m 1
 181 1487 l 1
 181 1333 l 1
 900 1333 l 1
 900 1487 l 1
916 203 m 1
 170 203 l 1
 170 50 l 1
 916 50 l 1
 916 203 l 1
668.771622219 863 m 1
 170 863 l 1
 170 713 l 1
 668.771622219 713 l 1
 668.771622219 863 l 1
EndSplineSet
EndChar

StartChar: F
Encoding: 70 70 40
Width: 1124
VWidth: 0
Flags: HW
LayerCount: 2
Fore
SplineSet
291 1498 m 1
 141 1498 l 1
 141 50 l 1
 291 50 l 1
 291 1498 l 1
877 1498 m 1
 243 1498 l 1
 243 1347 l 1
 877 1347 l 1
 877 1498 l 1
780 850 m 1
 231 850 l 1
 231 697 l 1
 780 697 l 1
 780 850 l 1
EndSplineSet
EndChar

StartChar: G
Encoding: 71 71 41
Width: 1124
VWidth: 0
Flags: W
LayerCount: 2
Fore
SplineSet
262 1498 m 1
 110 1498 l 1
 110 50 l 1
 262 50 l 1
 262 1498 l 1
868 1498 m 1
 168 1498 l 1
 168 1347 l 1
 868 1347 l 1
 868 1498 l 1
904 202 m 1
 141 202 l 1
 141 50 l 1
 904 50 l 1
 904 202 l 1
904 536 m 1
 755 536 l 1
 755 68 l 1
 904 68 l 1
 904 536 l 1
EndSplineSet
EndChar

StartChar: H
Encoding: 72 72 42
Width: 1124
VWidth: 0
Flags: W
LayerCount: 2
Fore
SplineSet
239 1487 m 1
 89 1487 l 1
 89 50 l 1
 239 50 l 1
 239 1487 l 1
885 1487 m 1
 725 1487 l 1
 725 50 l 1
 885 50 l 1
 885 1487 l 1
755 998 m 1
 209 998 l 1
 209 843 l 1
 755 843 l 1
 755 998 l 1
EndSplineSet
EndChar

StartChar: I
Encoding: 73 73 43
Width: 1124
VWidth: 0
Flags: W
LayerCount: 2
Fore
SplineSet
845 1487 m 1
 144 1487 l 1
 144 1335 l 1
 845 1335 l 1
 845 1487 l 1
563.656098471 1418 m 1
 378.687803059 1418 l 1
 378.687803059 134 l 1
 563.656098471 134 l 1
 563.656098471 1418 l 1
880 204 m 1
 124 204 l 1
 124 56 l 1
 880 56 l 1
 880 204 l 1
EndSplineSet
EndChar

StartChar: J
Encoding: 74 74 44
Width: 1124
VWidth: 0
Flags: W
LayerCount: 2
Fore
SplineSet
900 1477 m 1
 750 1477 l 1
 750 50 l 1
 900 50 l 1
 900 1477 l 1
741 208 m 1
 126 208 l 1
 126 50 l 1
 741 50 l 1
 741 208 l 1
273 503 m 1
 125 503 l 1
 125 102 l 1
 273 102 l 1
 273 503 l 1
EndSplineSet
EndChar

StartChar: K
Encoding: 75 75 45
Width: 1124
VWidth: 0
Flags: W
LayerCount: 2
Fore
SplineSet
269 1487 m 1
 118 1487 l 1
 118 55 l 1
 269 55 l 1
 269 1487 l 1
706.245234333 1479 m 1
 170.5078125 996.763671875 l 1
 259.549804688 874.05078125 l 1
 905.9140625 1479 l 1
 706.245234333 1479 l 1
961.873046875 50 m 1
 267.915039062 760.162109375 l 1
 164.1875 642.8046875 l 1
 747.440429688 50 l 1
 961.873046875 50 l 1
EndSplineSet
EndChar

StartChar: L
Encoding: 76 76 46
Width: 1124
VWidth: 0
Flags: W
LayerCount: 2
Fore
SplineSet
201 1492 m 1
 53 1492 l 1
 53 50 l 1
 201 50 l 1
 201 1492 l 1
888 202 m 1
 162 202 l 1
 162 50 l 1
 888 50 l 1
 888 202 l 1
EndSplineSet
EndChar

StartChar: M
Encoding: 77 77 47
Width: 1124
VWidth: 0
Flags: HW
LayerCount: 2
Fore
SplineSet
254 1498 m 1
 101 1498 l 1
 101 50 l 1
 254 50 l 1
 254 1498 l 1
924 1487 m 1
 772 1487 l 1
 772 50 l 1
 924 50 l 1
 924 1487 l 1
249.419921875 1491.54980469 m 1
 146.95703125 1405.68359375 l 1
 427.961165924 1031 l 1
 580.141417546 1031 l 1
 249.419921875 1491.54980469 l 1
900.829101562 1449.51367188 m 1
 785.112304688 1483.67089844 l 1
 464.995638428 1023 l 1
 616.017808076 1023 l 1
 900.829101562 1449.51367188 l 1
EndSplineSet
EndChar

StartChar: N
Encoding: 78 78 48
Width: 1124
VWidth: 0
Flags: W
LayerCount: 2
Fore
SplineSet
250 1498 m 1
 95 1498 l 1
 95 50 l 1
 250 50 l 1
 250 1498 l 1
924 1498 m 1
 772 1498 l 1
 772 50 l 1
 924 50 l 1
 924 1498 l 1
259.12890625 1498 m 1
 108.103515625 1498 l 1
 764.8515625 50 l 1
 913.94140625 50 l 1
 259.12890625 1498 l 1
EndSplineSet
EndChar

StartChar: O
Encoding: 79 79 49
Width: 1124
VWidth: 0
Flags: W
LayerCount: 2
Fore
SplineSet
261 1487 m 1
 110 1487 l 1
 110 50 l 1
 261 50 l 1
 261 1487 l 1
910 1487 m 1
 757 1487 l 1
 757 50 l 1
 910 50 l 1
 910 1487 l 1
817 1487 m 1
 174 1487 l 1
 174 1337 l 1
 817 1337 l 1
 817 1487 l 1
823 204 m 1
 150 204 l 1
 150 50 l 1
 823 50 l 1
 823 204 l 1
EndSplineSet
EndChar

StartChar: P
Encoding: 80 80 50
Width: 1124
VWidth: 0
Flags: HW
LayerCount: 2
Fore
SplineSet
252 1498 m 1
 112 1498 l 1
 112 59 l 1
 252 59 l 1
 252 1498 l 1
847 1498 m 1
 191 1498 l 1
 191 1346 l 1
 847 1346 l 1
 847 1498 l 1
867 1498 m 1
 717 1498 l 1
 717 906 l 1
 867 906 l 1
 867 1498 l 1
862 1018 m 1
 175 1018 l 1
 175 893 l 1
 862 893 l 1
 862 1018 l 1
EndSplineSet
EndChar

StartChar: Q
Encoding: 81 81 51
Width: 1124
VWidth: 0
Flags: HW
LayerCount: 2
Fore
SplineSet
259 1487 m 1
 110 1487 l 1
 110 55 l 1
 259 55 l 1
 259 1487 l 1
910 1487 m 1
 759 1487 l 1
 759 50 l 1
 910 50 l 1
 910 1487 l 1
817 1487 m 1
 174 1487 l 1
 174 1337 l 1
 817 1337 l 1
 817 1487 l 1
823 205 m 1
 150 205 l 1
 150 50 l 1
 823 50 l 1
 823 205 l 1
765.6171875 124.028320312 m 1
 605.946362961 33.982421875 l 1
 777.3828125 -229.291992188 l 1
 925.647460938 -139.24609375 l 1
 765.6171875 124.028320312 l 1
EndSplineSet
EndChar

StartChar: R
Encoding: 82 82 52
Width: 1124
VWidth: 0
Flags: W
LayerCount: 2
Fore
SplineSet
263 25 m 1
 263 1512 l 1
 112 1512 l 1
 112 25 l 1
 263 25 l 1
847 1360 m 1
 847 1512 l 1
 191 1512 l 1
 191 1360 l 1
 847 1360 l 1
874 897 m 1
 874 1512 l 1
 724 1512 l 1
 724 897 l 1
 874 897 l 1
862 893 m 1
 862 1054 l 1
 175 1054 l 1
 175 893 l 1
 862 893 l 1
941.412109375 25 m 1
 524.86989333 847.138671875 l 1
 328.178710938 848.654296875 l 1
 757.022460938 25 l 1
 941.412109375 25 l 1
EndSplineSet
EndChar

StartChar: S
Encoding: 83 83 53
Width: 1124
VWidth: 0
Flags: W
LayerCount: 2
Fore
SplineSet
744 1487 m 1
 146 1487 l 1
 146 1336 l 1
 744 1336 l 1
 744 1487 l 1
298 1492 m 1
 146 1492 l 1
 146 1028 l 1
 298 1028 l 1
 298 1492 l 1
882 199 m 1
 174 199 l 1
 174 50 l 1
 882 50 l 1
 882 199 l 1
767 355 m 1
 767 50 l 1
 918 50 l 1
 918 355 l 1
 767 355 l 1
311.41796875 1003 m 1
 174.991210938 1003 l 1
 753.569335938 405 l 1
 889.0703125 405 l 1
 311.41796875 1003 l 1
EndSplineSet
EndChar

StartChar: T
Encoding: 84 84 54
Width: 1124
VWidth: 0
Flags: W
LayerCount: 2
Fore
SplineSet
899 1498 m 1
 125 1498 l 1
 125 1348 l 1
 899 1348 l 1
 899 1498 l 1
603.130419821 1386 m 1
 420.869580179 1386 l 1
 420.869580179 56 l 1
 603.130419821 56 l 1
 603.130419821 1386 l 1
EndSplineSet
EndChar

StartChar: U
Encoding: 85 85 55
Width: 1124
VWidth: 0
Flags: W
LayerCount: 2
Fore
SplineSet
307 1487 m 1
 157 1487 l 1
 157 50 l 1
 307 50 l 1
 307 1487 l 1
867 1487 m 1
 718 1487 l 1
 718 50 l 1
 867 50 l 1
 867 1487 l 1
824 200 m 1
 204 200 l 1
 204 50 l 1
 824 50 l 1
 824 200 l 1
EndSplineSet
EndChar

StartChar: V
Encoding: 86 86 56
Width: 1124
VWidth: 0
Flags: HW
LayerCount: 2
Fore
SplineSet
256.560546875 1498 m 1
 106 1498 l 1
 358.719949277 50 l 1
 561.130792207 50 l 1
 256.560546875 1498 l 1
908.952148438 1498 m 1
 758.079101562 1498 l 1
 516.851966148 50 l 1
 712.509765625 50 l 1
 908.952148438 1498 l 1
EndSplineSet
EndChar

StartChar: W
Encoding: 87 87 57
Width: 1124
VWidth: 0
Flags: W
LayerCount: 2
Fore
SplineSet
255 1498 m 1
 104 1498 l 1
 104 50 l 1
 255 50 l 1
 255 1498 l 1
922 1498 m 1
 771 1498 l 1
 771 62 l 1
 922 62 l 1
 922 1498 l 1
602.784777281 1003 m 1
 424.575609053 1003 l 1
 424.575609053 50 l 1
 602.784777281 50 l 1
 602.784777281 1003 l 1
922 201 m 1
 103 201 l 1
 103 50 l 1
 922 50 l 1
 922 201 l 1
EndSplineSet
EndChar

StartChar: X
Encoding: 88 88 58
Width: 1124
VWidth: 0
Flags: HW
LayerCount: 2
Fore
SplineSet
235.872070312 1498 m 1
 91 1498 l 1
 762.263671875 50 l 1
 908.103515625 50 l 1
 235.872070312 1498 l 1
755.338867188 1498 m 1
 93.83203125 56 l 1
 240.766601562 56 l 1
 900.338867188 1498 l 1
 755.338867188 1498 l 1
EndSplineSet
EndChar

StartChar: Y
Encoding: 89 89 59
Width: 1074
VWidth: 0
Flags: W
VStem: 160 654
LayerCount: 2
Fore
SplineSet
563 872 m 1
 411 872 l 1
 411 50 l 1
 563 50 l 1
 563 872 l 1
310 1498 m 1
 160 1498 l 1
 160 884 l 1
 310 884 l 1
 310 1498 l 1
814 1498 m 1
 665 1498 l 1
 665 884 l 1
 814 884 l 1
 814 1498 l 1
724 998 m 1
 228 998 l 1
 228 884 l 1
 724 884 l 1
 724 998 l 1
EndSplineSet
EndChar

StartChar: Z
Encoding: 90 90 60
Width: 1124
VWidth: 0
Flags: W
LayerCount: 2
Fore
SplineSet
931 1361 m 1
 931 1523 l 1
 97 1523 l 1
 97 1361 l 1
 931 1361 l 1
926 25 m 1
 926 187 l 1
 98 187 l 1
 98 25 l 1
 926 25 l 1
265.122070312 236 m 1
 897.986328125 1310 l 1
 710.331054688 1310 l 1
 113.775390625 236 l 1
 265.122070312 236 l 1
EndSplineSet
EndChar

StartChar: bracketleft
Encoding: 91 91 61
Width: 1024
VWidth: 0
Flags: HW
LayerCount: 2
Fore
SplineSet
259 1517 m 1
 187 1517 l 1
 187 -217 l 1
 259 -217 l 1
 259 1517 l 1
400 1518 m 1
 241 1518 l 1
 241 1441 l 1
 400 1441 l 1
 400 1518 l 1
405 -116 m 1
 241 -116 l 1
 241 -217 l 1
 405 -217 l 1
 405 -116 l 1
EndSplineSet
EndChar

StartChar: backslash
Encoding: 92 92 62
Width: 1024
VWidth: 0
Flags: HW
LayerCount: 2
Fore
SplineSet
346.719831081 1486.61634207 m 1
 201.073468264 1427.44750718 l 1
 808.249306858 19.4193264541 l 1
 952.958659816 78.5152925838 l 1
 346.719831081 1486.61634207 l 1
EndSplineSet
EndChar

StartChar: bracketright
Encoding: 93 93 63
Width: 1024
VWidth: 0
Flags: HW
LayerCount: 2
Fore
SplineSet
463 1517 m 1
 391 1517 l 1
 391 -217 l 1
 463 -217 l 1
 463 1517 l 1
400 1518 m 1
 241 1518 l 1
 241 1441 l 1
 400 1441 l 1
 400 1518 l 1
405 -116 m 1
 241 -116 l 1
 241 -217 l 1
 405 -217 l 1
 405 -116 l 1
EndSplineSet
EndChar

StartChar: asciicircum
Encoding: 94 94 64
Width: 1024
VWidth: 0
Flags: HW
LayerCount: 2
Fore
SplineSet
328.961415884 377.858239565 m 1
 570.432543841 998 l 1
 474.46427379 998 l 1
 225.991913846 420.418967074 l 1
 328.961415884 377.858239565 l 1
597.074265009 982.221425132 m 1
 494.674266738 897.007440557 l 1
 733.019475296 374.696260864 l 1
 836.880448812 414.1634308 l 1
 597.074265009 982.221425132 l 1
EndSplineSet
EndChar

StartChar: underscore
Encoding: 95 95 65
Width: 1024
VWidth: 0
Flags: HW
LayerCount: 2
Fore
SplineSet
994 -30 m 1
 20 -30 l 1
 20 -46 l 1
 994 -46 l 1
 994 -30 l 1
EndSplineSet
EndChar

StartChar: grave
Encoding: 96 96 66
Width: 1024
VWidth: 0
Flags: HW
LayerCount: 2
Fore
SplineSet
402.428443823 1396.5664314 m 1
 299.334413533 1346.41257883 l 1
 422.661047874 1090.40349651 l 1
 526.576375029 1140.61761433 l 1
 402.428443823 1396.5664314 l 1
EndSplineSet
EndChar

StartChar: a
Encoding: 97 97 67
Width: 1074
VWidth: 0
Flags: W
LayerCount: 2
Fore
SplineSet
724 973 m 1
 168 973 l 1
 168 824 l 1
 724 824 l 1
 724 973 l 1
805 973 m 1
 661 973 l 1
 661 50 l 1
 805 50 l 1
 805 973 l 1
746 574 m 1
 172 574 l 1
 172 425 l 1
 746 425 l 1
 746 574 l 1
323 550 m 1
 172 550 l 1
 172 50 l 1
 323 50 l 1
 323 550 l 1
810 201 m 1
 170 201 l 1
 170 50 l 1
 810 50 l 1
 810 201 l 1
EndSplineSet
EndChar

StartChar: b
Encoding: 98 98 68
Width: 1124
VWidth: 0
Flags: HW
LayerCount: 2
Fore
SplineSet
284 1487 m 1
 135 1487 l 1
 135 50 l 1
 284 50 l 1
 284 1487 l 1
750 983 m 1
 232 983 l 1
 232 834 l 1
 750 834 l 1
 750 983 l 1
889 983 m 1
 740 983 l 1
 740 50 l 1
 889 50 l 1
 889 983 l 1
810 207 m 1
 260 207 l 1
 260 50 l 1
 810 50 l 1
 810 207 l 1
EndSplineSet
EndChar

StartChar: c
Encoding: 99 99 69
Width: 1074
VWidth: 0
Flags: W
LayerCount: 2
Fore
SplineSet
810 973 m 1
 164 973 l 1
 164 826 l 1
 810 826 l 1
 810 973 l 1
318 934 m 1
 166 934 l 1
 166 50 l 1
 318 50 l 1
 318 934 l 1
804 201 m 1
 272 201 l 1
 272 50 l 1
 804 50 l 1
 804 201 l 1
EndSplineSet
EndChar

StartChar: d
Encoding: 100 100 70
Width: 1124
VWidth: 0
Flags: HW
LayerCount: 2
Fore
SplineSet
893 1477 m 1
 742 1477 l 1
 742 50 l 1
 893 50 l 1
 893 1477 l 1
781 973 m 1
 228 973 l 1
 228 822 l 1
 781 822 l 1
 781 973 l 1
283 973 m 1
 132 973 l 1
 132 50 l 1
 283 50 l 1
 283 973 l 1
845 195 m 1
 228 195 l 1
 228 50 l 1
 845 50 l 1
 845 195 l 1
EndSplineSet
EndChar

StartChar: e
Encoding: 101 101 71
Width: 1074
VWidth: 0
Flags: W
LayerCount: 2
Fore
SplineSet
804 973 m 1
 219 973 l 1
 219 812 l 1
 804 812 l 1
 804 973 l 1
321 973 m 1
 169 973 l 1
 169 50 l 1
 321 50 l 1
 321 973 l 1
803 201 m 1
 271 201 l 1
 271 50 l 1
 803 50 l 1
 803 201 l 1
779 600 m 1
 239 600 l 1
 239 471 l 1
 779 471 l 1
 779 600 l 1
802 943 m 1
 657 943 l 1
 657 470 l 1
 802 470 l 1
 802 943 l 1
EndSplineSet
EndChar

StartChar: f
Encoding: 102 102 72
Width: 1124
VWidth: 0
Flags: HW
LayerCount: 2
Fore
SplineSet
489.659373659 973 m 1
 316 973 l 1
 316 -356 l 1
 489.659373659 -356 l 1
 489.659373659 973 l 1
860 973 m 1
 378.064350064 973 l 1
 378.064350064 831 l 1
 860 831 l 1
 860 973 l 1
763 534 m 1
 132 534 l 1
 132 381 l 1
 763 381 l 1
 763 534 l 1
EndSplineSet
EndChar

StartChar: g
Encoding: 103 103 73
Width: 1074
VWidth: 0
Flags: W
LayerCount: 2
Fore
SplineSet
439 973 m 1
 297 973 l 1
 297 50 l 1
 439 50 l 1
 439 973 l 1
803 973 m 1
 337 973 l 1
 337 823 l 1
 803 823 l 1
 803 973 l 1
825 973 m 1
 681 973 l 1
 681 -361 l 1
 825 -361 l 1
 825 973 l 1
767 198 m 1
 360 198 l 1
 360 50 l 1
 767 50 l 1
 767 198 l 1
776 -214 m 1
 291 -214 l 1
 291 -363 l 1
 776 -363 l 1
 776 -214 l 1
EndSplineSet
EndChar

StartChar: h
Encoding: 104 104 74
Width: 1074
VWidth: 0
Flags: W
VStem: 311 13<826 973>
LayerCount: 2
Fore
SplineSet
324 1487 m 1
 174 1487 l 1
 174 56 l 1
 324 56 l 1
 324 1487 l 1
792 973 m 1
 311 973 l 1
 311 826 l 1
 792 826 l 1
 792 973 l 1
800 973 m 1
 651 973 l 1
 651 50 l 1
 800 50 l 1
 800 973 l 1
EndSplineSet
EndChar

StartChar: i
Encoding: 105 105 75
Width: 1124
VWidth: 0
Flags: W
LayerCount: 2
Fore
SplineSet
606.954509178 968 m 1
 417.045490822 968 l 1
 417.045490822 189 l 1
 606.954509178 189 l 1
 606.954509178 968 l 1
883 204 m 1
 141 204 l 1
 141 56 l 1
 883 56 l 1
 883 204 l 1
521.995211492 1319 m 1
 347 1319 l 1
 347 1168 l 1
 521.995211492 1168 l 1
 521.995211492 1319 l 1
549.482043097 968 m 1
 191 968 l 1
 191 818 l 1
 549.482043097 818 l 1
 549.482043097 968 l 1
EndSplineSet
EndChar

StartChar: j
Encoding: 106 106 76
Width: 1074
VWidth: 0
Flags: HW
LayerCount: 2
Fore
SplineSet
776 973 m 1
 627 973 l 1
 627 -361 l 1
 776 -361 l 1
 776 973 l 1
677 -209 m 1
 197 -209 l 1
 197 -356 l 1
 677 -356 l 1
 677 -209 l 1
348 -6 m 1
 198 -6 l 1
 198 -301 l 1
 348 -301 l 1
 348 -6 l 1
770 1363 m 1
 619 1363 l 1
 619 1214 l 1
 770 1214 l 1
 770 1363 l 1
EndSplineSet
EndChar

StartChar: k
Encoding: 107 107 77
Width: 1124
VWidth: 0
Flags: W
LayerCount: 2
Fore
SplineSet
268 1487 m 1
 118 1487 l 1
 118 55 l 1
 268 55 l 1
 268 1487 l 1
721.177734375 973 m 1
 169.454101562 507.876953125 l 1
 205.112304688 349.232421875 l 1
 869.875976562 973 l 1
 721.177734375 973 l 1
930.967773438 50 m 1
 403.441902978 594.428710938 l 1
 281.955078125 482.149414062 l 1
 757.870117188 50 l 1
 930.967773438 50 l 1
EndSplineSet
EndChar

StartChar: l
Encoding: 108 108 78
Width: 1074
VWidth: 0
Flags: W
VStem: 195 584
LayerCount: 2
Fore
SplineSet
779 209 m 1
 195 209 l 1
 195 59 l 1
 779 59 l 1
 779 209 l 1
562 1498 m 1
 412 1498 l 1
 412 136 l 1
 562 136 l 1
 562 1498 l 1
441 1498 m 1
 256 1498 l 1
 256 1349 l 1
 441 1349 l 1
 441 1498 l 1
EndSplineSet
EndChar

StartChar: m
Encoding: 109 109 79
Width: 1124
VWidth: 0
Flags: HW
LayerCount: 2
Fore
SplineSet
260 943 m 1
 110 943 l 1
 110 50 l 1
 260 50 l 1
 260 943 l 1
615.527525446 922 m 1
 445.006566707 922 l 1
 445.006566707 50 l 1
 615.527525446 50 l 1
 615.527525446 922 l 1
940 926 m 1
 790 926 l 1
 790 50 l 1
 940 50 l 1
 940 926 l 1
939 973 m 1
 33 973 l 1
 33 826 l 1
 939 826 l 1
 939 973 l 1
EndSplineSet
EndChar

StartChar: n
Encoding: 110 110 80
Width: 1124
VWidth: 0
Flags: W
LayerCount: 2
Fore
SplineSet
412.736230419 940 m 1
 244 940 l 1
 244 50 l 1
 412.736230419 50 l 1
 412.736230419 940 l 1
844 926 m 1
 693 926 l 1
 693 50 l 1
 844 50 l 1
 844 926 l 1
843 973 m 1
 65 973 l 1
 65 826 l 1
 843 826 l 1
 843 973 l 1
EndSplineSet
EndChar

StartChar: o
Encoding: 111 111 81
Width: 1124
VWidth: 0
Flags: W
LayerCount: 2
Fore
SplineSet
254 973 m 1
 104 973 l 1
 104 50 l 1
 254 50 l 1
 254 973 l 1
921 973 m 1
 769 973 l 1
 769 50 l 1
 921 50 l 1
 921 973 l 1
813 973 m 1
 227 973 l 1
 227 822 l 1
 813 822 l 1
 813 973 l 1
803 200 m 1
 231 200 l 1
 231 50 l 1
 803 50 l 1
 803 200 l 1
EndSplineSet
EndChar

StartChar: p
Encoding: 112 112 82
Width: 1074
VWidth: 0
Flags: HW
LayerCount: 2
Fore
SplineSet
323 1153 m 1
 173 1153 l 1
 173 -356 l 1
 323 -356 l 1
 323 1153 l 1
760 973 m 1
 271 973 l 1
 271 821 l 1
 760 821 l 1
 760 973 l 1
765 202 m 1
 275 202 l 1
 275 50 l 1
 765 50 l 1
 765 202 l 1
761 826 m 1
 613 826 l 1
 613 225 l 1
 761 225 l 1
 761 826 l 1
EndSplineSet
EndChar

StartChar: q
Encoding: 113 113 83
Width: 1124
VWidth: 0
Flags: HW
LayerCount: 2
Fore
SplineSet
861 1151 m 1
 712 1151 l 1
 712 -356 l 1
 861 -356 l 1
 861 1151 l 1
838 973 m 1
 189 973 l 1
 189 823 l 1
 838 823 l 1
 838 973 l 1
806 203 m 1
 190 203 l 1
 190 50 l 1
 806 50 l 1
 806 203 l 1
338 805 m 1
 188 805 l 1
 188 157 l 1
 338 157 l 1
 338 805 l 1
937 -268 m 1
 751 -268 l 1
 751 -356 l 1
 937 -356 l 1
 937 -268 l 1
EndSplineSet
EndChar

StartChar: r
Encoding: 114 114 84
Width: 1124
VWidth: 0
Flags: W
LayerCount: 2
Fore
SplineSet
898 973 m 1
 165 973 l 1
 165 821 l 1
 898 821 l 1
 898 973 l 1
561.136411113 904 m 1
 380 904 l 1
 380 50 l 1
 561.136411113 50 l 1
 561.136411113 904 l 1
898 926 m 1
 748 926 l 1
 748 675 l 1
 898 675 l 1
 898 926 l 1
EndSplineSet
EndChar

StartChar: s
Encoding: 115 115 85
Width: 1074
VWidth: 0
Flags: W
VStem: 186 559
LayerCount: 2
Fore
SplineSet
745 973 m 1
 186 973 l 1
 186 826 l 1
 745 826 l 1
 745 973 l 1
336 973 m 1
 186 973 l 1
 186 736 l 1
 336 736 l 1
 336 973 l 1
742 201 m 1
 187 201 l 1
 187 50 l 1
 742 50 l 1
 742 201 l 1
741 293 m 1
 591 293 l 1
 591 62 l 1
 741 62 l 1
 741 293 l 1
350.970703125 686 m 1
 218.627929688 686 l 1
 577.029296875 343 l 1
 709.372070312 343 l 1
 350.970703125 686 l 1
EndSplineSet
EndChar

StartChar: t
Encoding: 116 116 86
Width: 1074
VWidth: 0
Flags: W
VStem: 174 624
LayerCount: 2
Fore
SplineSet
560 1498 m 1
 410 1498 l 1
 410 50 l 1
 560 50 l 1
 560 1498 l 1
759 199 m 1
 418 199 l 1
 418 50 l 1
 759 50 l 1
 759 199 l 1
798 973 m 1
 174 973 l 1
 174 824 l 1
 798 824 l 1
 798 973 l 1
EndSplineSet
EndChar

StartChar: u
Encoding: 117 117 87
Width: 1124
VWidth: 0
Flags: W
LayerCount: 2
Fore
SplineSet
290 973 m 1
 139 973 l 1
 139 50 l 1
 290 50 l 1
 290 973 l 1
771 973 m 1
 615.881434355 973 l 1
 615.881434355 50 l 1
 771 50 l 1
 771 973 l 1
888 200 m 1
 186 200 l 1
 186 50 l 1
 888 50 l 1
 888 200 l 1
EndSplineSet
EndChar

StartChar: v
Encoding: 118 118 88
Width: 1074
VWidth: 0
Flags: HW
LayerCount: 2
Fore
SplineSet
328.905273438 973 m 1
 181 973 l 1
 398.807617188 50 l 1
 554.322265625 50 l 1
 328.905273438 973 l 1
780.590820312 973 m 1
 631.693359375 973 l 1
 408.178710938 50 l 1
 563.734375 50 l 1
 780.590820312 973 l 1
EndSplineSet
EndChar

StartChar: w
Encoding: 119 119 89
Width: 1124
VWidth: 0
Flags: W
LayerCount: 2
Fore
SplineSet
252 973 m 1
 103 973 l 1
 103 50 l 1
 252 50 l 1
 252 973 l 1
921 978 m 1
 772 978 l 1
 772 62 l 1
 921 62 l 1
 921 978 l 1
597.064004613 585 m 1
 418.854836385 585 l 1
 418.854836385 50 l 1
 597.064004613 50 l 1
 597.064004613 585 l 1
921 276 m 1
 102 276 l 1
 102 50 l 1
 921 50 l 1
 921 276 l 1
EndSplineSet
EndChar

StartChar: x
Encoding: 120 120 90
Width: 1124
VWidth: 0
Flags: HW
LayerCount: 2
Fore
SplineSet
746.866210938 973 m 1
 91 50 l 1
 233.077148438 50 l 1
 887.041015625 973 l 1
 746.866210938 973 l 1
236.124023438 973 m 1
 93.1865234375 973 l 1
 753.80859375 50 l 1
 893.891601562 50 l 1
 236.124023438 973 l 1
EndSplineSet
EndChar

StartChar: y
Encoding: 121 121 91
Width: 1124
VWidth: 0
Flags: W
LayerCount: 2
Fore
SplineSet
880 973 m 1
 730 973 l 1
 730 -356 l 1
 880 -356 l 1
 880 973 l 1
864 -211 m 1
 147 -211 l 1
 147 -356 l 1
 864 -356 l 1
 864 -211 l 1
297 973 m 1
 147 973 l 1
 147 314 l 1
 297 314 l 1
 297 973 l 1
765 439 m 1
 147 439 l 1
 147 314 l 1
 765 314 l 1
 765 439 l 1
EndSplineSet
EndChar

StartChar: z
Encoding: 122 122 92
Width: 1124
VWidth: 0
Flags: W
LayerCount: 2
Fore
SplineSet
926 973 m 1
 98 973 l 1
 98 826 l 1
 926 826 l 1
 926 973 l 1
926 201 m 1
 98 201 l 1
 98 50 l 1
 926 50 l 1
 926 201 l 1
897.552734375 776 m 1
 668.7862918 776 l 1
 127.368164062 251 l 1
 371.423170902 251 l 1
 897.552734375 776 l 1
EndSplineSet
EndChar

StartChar: braceleft
Encoding: 123 123 93
Width: 1024
VWidth: 0
Flags: HW
LayerCount: 2
Fore
SplineSet
542 1523 m 1
 446 1523 l 1
 446 863 l 1
 542 863 l 1
 542 1523 l 1
554 399 m 1
 458 399 l 1
 458 -261 l 1
 554 -261 l 1
 554 399 l 1
427.033252126 813 m 1
 157 674.713075036 l 1
 157 669.667956676 l 1
 456.756917528 813 l 1
 427.033252126 813 l 1
488.631193301 450 m 1
 157 646.165772823 l 1
 157 643.168781488 l 1
 438.74373495 450 l 1
 488.631193301 450 l 1
447 1578 m 1
 447 1490.85253863 l 1
 638.438685642 1578 l 1
 447 1578 l 1
459 -262 m 1
 628.037299748 -262 l 1
 459 -179.931166064 l 1
 459 -262 l 1
EndSplineSet
EndChar

StartChar: bar
Encoding: 124 124 94
Width: 1024
VWidth: 0
Flags: HW
LayerCount: 2
Fore
SplineSet
703 1410 m 1
 550 1410 l 1
 550 -65 l 1
 703 -65 l 1
 703 1410 l 1
EndSplineSet
EndChar

StartChar: braceright
Encoding: 125 125 95
Width: 1024
VWidth: 0
Flags: HW
LayerCount: 2
Fore
SplineSet
412 863 m 1
 412 1523 l 1
 300 1523 l 1
 300 863 l 1
 412 863 l 1
398 -261 m 1
 398 399 l 1
 288 399 l 1
 288 -261 l 1
 398 -261 l 1
685 669.512323014 m 1
 685 674.985675565 l 1
 425.756877076 813 l 1
 382.158220207 813 l 1
 685 669.512323014 l 1
685 642.82589696 m 1
 685 646.031439253 l 1
 353.898295692 449 l 1
 414.961007633 449 l 1
 685 642.82589696 l 1
413 1578 m 1
 219.023310503 1578 l 1
 413 1490.67470067 l 1
 413 1578 l 1
383 -259 m 1
 383 -179.931166064 l 1
 220.14180473 -259 l 1
 383 -259 l 1
EndSplineSet
EndChar

StartChar: asciitilde
Encoding: 126 126 96
Width: 1024
VWidth: 0
Flags: HW
LayerCount: 2
Fore
SplineSet
655 732.97679894 m 1
 355 785.262513226 l 1
 355 737.02320106 l 1
 655 684.737486774 l 1
 655 732.97679894 l 1
305 783.171190569 m 1
 120.182167019 738.131550599 l 1
 127.540240085 690.058806569 l 1
 305 735.418476143 l 1
 305 783.171190569 l 1
822.690043567 846.143001608 m 1
 705 742.695702167 l 1
 705 706.161086562 l 1
 832.796899613 805.715577421 l 1
 822.690043567 846.143001608 l 1
EndSplineSet
EndChar

StartChar: exclamdown
Encoding: 161 161 97
Width: 1024
VWidth: 0
Flags: HW
LayerCount: 2
Fore
SplineSet
647 1297 m 1
 647 1495 l 1
 553 1495 l 1
 553 1297 l 1
 647 1297 l 1
637 42 m 1
 637 1010 l 1
 559 1010 l 1
 559 42 l 1
 637 42 l 1
EndSplineSet
EndChar

StartChar: cent
Encoding: 162 162 98
Width: 1024
VWidth: 0
Flags: HW
LayerCount: 2
Fore
SplineSet
666 -61 m 1
 666 1158 l 1
 569 1158 l 1
 569 -61 l 1
 666 -61 l 1
835 998 m 1
 189 998 l 1
 189 851 l 1
 835 851 l 1
 835 998 l 1
343 959 m 1
 191 959 l 1
 191 25 l 1
 343 25 l 1
 343 959 l 1
829 176 m 1
 297 176 l 1
 297 25 l 1
 829 25 l 1
 829 176 l 1
EndSplineSet
EndChar

StartChar: sterling
Encoding: 163 163 99
Width: 1024
VWidth: 0
Flags: HW
LayerCount: 2
Fore
SplineSet
647 1518 m 1
 406 1518 l 1
 406 1369 l 1
 647 1369 l 1
 647 1518 l 1
755 745 m 1
 79 745 l 1
 79 596 l 1
 755 596 l 1
 755 745 l 1
510 1517 m 1
 362 1517 l 1
 362 25 l 1
 510 25 l 1
 510 1517 l 1
863 177 m 1
 187 177 l 1
 187 25 l 1
 863 25 l 1
 863 177 l 1
EndSplineSet
EndChar

StartChar: currency
Encoding: 164 164 100
Width: 1024
VWidth: 0
Flags: HW
LayerCount: 2
Fore
SplineSet
254 1177 m 1
 104 1177 l 1
 104 205 l 1
 254 205 l 1
 254 1177 l 1
871 1179 m 1
 719 1179 l 1
 719 205 l 1
 871 205 l 1
 871 1179 l 1
763 1179 m 1
 227 1179 l 1
 227 1027 l 1
 763 1027 l 1
 763 1179 l 1
753 355 m 1
 231 355 l 1
 231 206 l 1
 753 206 l 1
 753 355 l 1
243 1331 m 1
 25 1331 l 1
 25 1134 l 1
 243 1134 l 1
 243 1331 l 1
937 1306 m 1
 723 1306 l 1
 723 1109 l 1
 937 1109 l 1
 937 1306 l 1
249 341 m 1
 35 341 l 1
 35 144 l 1
 249 144 l 1
 249 341 l 1
919 346 m 1
 705 346 l 1
 705 149 l 1
 919 149 l 1
 919 346 l 1
EndSplineSet
EndChar

StartChar: yen
Encoding: 165 165 101
Width: 1024
VWidth: 0
Flags: HW
LayerCount: 2
Fore
SplineSet
749 750 m 1
 253 750 l 1
 253 640 l 1
 749 640 l 1
 749 750 l 1
749 515 m 1
 253 515 l 1
 253 405 l 1
 749 405 l 1
 749 515 l 1
588 872 m 1
 436 872 l 1
 436 25 l 1
 588 25 l 1
 588 872 l 1
335 1523 m 1
 185 1523 l 1
 185 884 l 1
 335 884 l 1
 335 1523 l 1
839 1523 m 1
 690 1523 l 1
 690 884 l 1
 839 884 l 1
 839 1523 l 1
749 998 m 1
 253 998 l 1
 253 884 l 1
 749 884 l 1
 749 998 l 1
EndSplineSet
EndChar

StartChar: brokenbar
Encoding: 166 166 102
Width: 1024
VWidth: 0
Flags: HW
LayerCount: 2
Fore
SplineSet
536 657 m 1
 536 -307 l 1
 596 -307 l 1
 596 657 l 1
 536 657 l 1
539 1611 m 1
 539 815 l 1
 599 815 l 1
 599 1611 l 1
 539 1611 l 1
EndSplineSet
EndChar

StartChar: section
Encoding: 167 167 103
Width: 1024
VWidth: 0
Flags: HW
LayerCount: 2
Fore
SplineSet
719 1213 m 1
 171 1213 l 1
 171 1060 l 1
 719 1060 l 1
 719 1213 l 1
323 1216 m 1
 171 1216 l 1
 171 630 l 1
 323 630 l 1
 323 1216 l 1
866 -86 m 1
 208 -86 l 1
 208 -235 l 1
 866 -235 l 1
 866 -86 l 1
751 70 m 1
 751 -234 l 1
 902 -234 l 1
 902 70 l 1
 751 70 l 1
338.566478723 580 m 1
 212.28405396 580 l 1
 735.421308862 120 l 1
 860.80177284 120 l 1
 338.566478723 580 l 1
719 1601 m 1
 171 1601 l 1
 171 1448 l 1
 719 1448 l 1
 719 1601 l 1
323 1604 m 1
 171 1604 l 1
 171 1262 l 1
 323 1262 l 1
 323 1604 l 1
857 261 m 1
 199 261 l 1
 199 112 l 1
 857 112 l 1
 857 261 l 1
742 417 m 1
 742 113 l 1
 893 113 l 1
 893 417 l 1
 742 417 l 1
335.165858679 1212 m 1
 194.732949802 1212 l 1
 729.821000116 467 l 1
 869.316802076 467 l 1
 335.165858679 1212 l 1
EndSplineSet
EndChar

StartChar: dieresis
Encoding: 168 168 104
Width: 1024
VWidth: 0
Flags: HW
LayerCount: 2
Fore
SplineSet
432 1005 m 1
 370 1005 l 1
 370 954 l 1
 432 954 l 1
 432 1005 l 1
674 1005 m 1
 612 1005 l 1
 612 954 l 1
 674 954 l 1
 674 1005 l 1
EndSplineSet
EndChar

StartChar: copyright
Encoding: 169 169 105
Width: 1024
VWidth: 0
Flags: HW
LayerCount: 2
Fore
SplineSet
192 1512 m 1
 41 1512 l 1
 41 25 l 1
 192 25 l 1
 192 1512 l 1
992 1512 m 1
 839 1512 l 1
 839 25 l 1
 992 25 l 1
 992 1512 l 1
792 1512 m 1
 151 1512 l 1
 151 1362 l 1
 792 1362 l 1
 792 1512 l 1
798 179 m 1
 175 179 l 1
 175 25 l 1
 798 25 l 1
 798 179 l 1
672 1172 m 1
 287 1172 l 1
 287 1021 l 1
 672 1021 l 1
 672 1172 l 1
407 1129 m 1
 288 1129 l 1
 288 365 l 1
 407 365 l 1
 407 1129 l 1
678 470 m 1
 288 470 l 1
 288 319 l 1
 678 319 l 1
 678 470 l 1
EndSplineSet
EndChar

StartChar: ordfeminine
Encoding: 170 170 106
Width: 1124
VWidth: 0
Flags: HW
LayerCount: 2
Fore
SplineSet
774 1269 m 1
 168 1269 l 1
 168 1119 l 1
 774 1119 l 1
 774 1269 l 1
855 1270 m 1
 711 1270 l 1
 711 346 l 1
 855 346 l 1
 855 1270 l 1
796 869 m 1
 172 869 l 1
 172 720 l 1
 796 720 l 1
 796 869 l 1
323.036755697 845 m 1
 172 845 l 1
 172 343 l 1
 323.036755697 343 l 1
 323.036755697 845 l 1
860 471 m 1
 170 471 l 1
 170 346 l 1
 860 346 l 1
 860 471 l 1
945 162 m 1
 77 162 l 1
 77 50 l 1
 945 50 l 1
 945 162 l 1
EndSplineSet
EndChar

StartChar: guillemotleft
Encoding: 171 171 107
Width: 1024
VWidth: 0
Flags: HW
LayerCount: 2
Fore
SplineSet
478 744.471595347 m 1
 159 593.184332475 l 1
 159 493.722116501 l 1
 478 646.738376663 l 1
 478 744.471595347 l 1
477 257.089232462 m 1
 159 551.757710722 l 1
 159 465.109828883 l 1
 477 178.218524535 l 1
 477 257.089232462 l 1
893 744.471595347 m 1
 574 593.184332475 l 1
 574 493.722116501 l 1
 893 646.738376663 l 1
 893 744.471595347 l 1
892 257.089232462 m 1
 574 551.757710722 l 1
 574 465.109828883 l 1
 892 178.218524535 l 1
 892 257.089232462 l 1
EndSplineSet
EndChar

StartChar: logicalnot
Encoding: 172 172 108
Width: 1024
VWidth: 0
Flags: HW
LayerCount: 2
Fore
SplineSet
726 910 m 1
 666 910 l 1
 666 665 l 1
 726 665 l 1
 726 910 l 1
736 910 m 1
 236 910 l 1
 236 860 l 1
 736 860 l 1
 736 910 l 1
EndSplineSet
EndChar

StartChar: registered
Encoding: 174 174 109
Width: 1024
VWidth: 0
Flags: HW
LayerCount: 2
Fore
SplineSet
432 1007 m 1
 414 1007 l 1
 414 526 l 1
 432 526 l 1
 432 1007 l 1
618 1007 m 1
 439 1007 l 1
 439 988 l 1
 618 988 l 1
 618 1007 l 1
627 1007 m 1
 608 1007 l 1
 608 827 l 1
 627 827 l 1
 627 1007 l 1
623 850 m 1
 435 850 l 1
 435 826 l 1
 623 826 l 1
 623 850 l 1
511.434124694 784 m 1
 495.662496917 784 l 1
 612.170587532 525 l 1
 638.838655439 525 l 1
 511.434124694 784 l 1
209 1512 m 1
 58 1512 l 1
 58 25 l 1
 209 25 l 1
 209 1512 l 1
950 1512 m 1
 797 1512 l 1
 797 25 l 1
 950 25 l 1
 950 1512 l 1
792 1512 m 1
 199 1512 l 1
 199 1362 l 1
 792 1362 l 1
 792 1512 l 1
798 179 m 1
 175 179 l 1
 175 25 l 1
 798 25 l 1
 798 179 l 1
EndSplineSet
EndChar

StartChar: macron
Encoding: 175 175 110
Width: 1024
VWidth: 0
Flags: HW
LayerCount: 2
Fore
SplineSet
780 998 m 1
 270 998 l 1
 270 969 l 1
 780 969 l 1
 780 998 l 1
EndSplineSet
EndChar

StartChar: degree
Encoding: 176 176 111
Width: 1024
VWidth: 0
Flags: HW
LayerCount: 2
Fore
SplineSet
442 1481 m 1
 640 1481 l 1
 640 1301 l 1
 442 1301 l 1
 442 1481 l 1
697 1523 m 1
 387 1523 l 1
 387 1263 l 1
 697 1263 l 1
 697 1523 l 1
EndSplineSet
EndChar

StartChar: plusminus
Encoding: 177 177 112
Width: 1024
VWidth: 0
Flags: HW
LayerCount: 2
Fore
SplineSet
900 83 m 1
 124 83 l 1
 124 -75 l 1
 900 -75 l 1
 900 83 l 1
584 1196 m 1
 409 1196 l 1
 409 190 l 1
 584 190 l 1
 584 1196 l 1
938 796 m 1
 86 796 l 1
 86 638 l 1
 938 638 l 1
 938 796 l 1
EndSplineSet
EndChar

StartChar: uni00B2
Encoding: 178 178 113
Width: 1024
VWidth: 0
Flags: HW
LayerCount: 2
Fore
SplineSet
250 1523 m 1
 250 1480 l 1
 598 1480 l 1
 598 1234 l 1
 254 1234 l 1
 254 876 l 1
 653 876 l 1
 653 915 l 1
 320 915 l 1
 320 1193 l 1
 662 1193 l 1
 662 1523 l 1
 250 1523 l 1
EndSplineSet
EndChar

StartChar: uni00B3
Encoding: 179 179 114
Width: 1024
VWidth: 0
Flags: HW
LayerCount: 2
Fore
SplineSet
218 1273 m 1
 218 1240 l 1
 670 1240 l 1
 670 965 l 1
 189 965 l 1
 189 933 l 1
 760 933 l 1
 760 1528 l 1
 210 1528 l 1
 210 1496 l 1
 669 1496 l 1
 669 1273 l 1
 218 1273 l 1
EndSplineSet
EndChar

StartChar: acute
Encoding: 180 180 115
Width: 1024
VWidth: 0
Flags: HW
LayerCount: 2
Fore
SplineSet
577.262534785 1500.04202985 m 1
 532.921095684 1522.46185861 l 1
 425.549450163 1312.67418197 l 1
 469.267045492 1289.8218026 l 1
 577.262534785 1500.04202985 l 1
EndSplineSet
EndChar

StartChar: mu
Encoding: 181 181 116
Width: 1024
VWidth: 0
Flags: HW
LayerCount: 2
Fore
SplineSet
816 910 m 1
 756 910 l 1
 756 25 l 1
 816 25 l 1
 816 910 l 1
786 95 m 1
 321 95 l 1
 321 25 l 1
 786 25 l 1
 786 95 l 1
266 910 m 1
 221 910 l 1
 221 -405 l 1
 266 -405 l 1
 266 910 l 1
EndSplineSet
EndChar

StartChar: paragraph
Encoding: 182 182 117
Width: 1024
VWidth: 0
Flags: HW
LayerCount: 2
Fore
SplineSet
576 1105 m 1
 61 1105 l 1
 61 1010 l 1
 576 1010 l 1
 576 1105 l 1
171 1523 m 1
 61 1523 l 1
 61 1025 l 1
 171 1025 l 1
 171 1523 l 1
831 1523 m 1
 61 1523 l 1
 61 1460 l 1
 831 1460 l 1
 831 1523 l 1
626 1523 m 1
 531 1523 l 1
 531 25 l 1
 626 25 l 1
 626 1523 l 1
856 1523 m 1
 801 1523 l 1
 801 25 l 1
 856 25 l 1
 856 1523 l 1
EndSplineSet
EndChar

StartChar: periodcentered
Encoding: 183 183 118
Width: 1024
VWidth: 0
Flags: W
HStem: 924 197
VStem: 404 215
LayerCount: 2
Fore
SplineSet
619 1121 m 1
 404 1121 l 1
 404 924 l 1
 619 924 l 1
 619 1121 l 1
EndSplineSet
EndChar

StartChar: cedilla
Encoding: 184 184 119
Width: 1024
VWidth: 0
Flags: HW
LayerCount: 2
Fore
SplineSet
432 217 m 1
 326 217 l 1
 326 -57 l 1
 432 -57 l 1
 432 217 l 1
723 -251 m 1
 327 -251 l 1
 327 -321 l 1
 723 -321 l 1
 723 -251 l 1
723 37 m 1
 621 37 l 1
 621 -285 l 1
 723 -285 l 1
 723 37 l 1
723 37 m 1
 327 37 l 1
 327 -69 l 1
 723 -69 l 1
 723 37 l 1
EndSplineSet
EndChar

StartChar: uni00B9
Encoding: 185 185 120
Width: 1024
VWidth: 887
Flags: HW
LayerCount: 2
Fore
SplineSet
535.75 1636 m 1
 535.75 912 l 1
 585.25 912 l 1
 585.25 1636 l 1
 535.75 1636 l 1
553.019032726 1604.47005857 m 1
 519.71492061 1626.45077257 l 1
 448.448931738 1519.9117185 l 1
 481.816690849 1497.66654576 l 1
 553.019032726 1604.47005857 l 1
EndSplineSet
EndChar

StartChar: ordmasculine
Encoding: 186 186 121
Width: 1124
VWidth: 0
Flags: HW
LayerCount: 2
Fore
SplineSet
255.372077599 973 m 1
 104 973 l 1
 104 50 l 1
 255.372077599 50 l 1
 255.372077599 973 l 1
921 973 m 1
 768.560603548 973 l 1
 768.560603548 50 l 1
 921 50 l 1
 921 973 l 1
813 973 m 1
 227 973 l 1
 227 822 l 1
 813 822 l 1
 813 973 l 1
803 175 m 1
 231 175 l 1
 231 50 l 1
 803 50 l 1
 803 175 l 1
1019 -70 m 1
 -5 -70 l 1
 -5 -86 l 1
 1019 -86 l 1
 1019 -70 l 1
EndSplineSet
EndChar

StartChar: guillemotright
Encoding: 187 187 122
Width: 1024
VWidth: 0
Flags: HW
LayerCount: 2
Fore
SplineSet
895 493.722116501 m 1
 895 593.184332475 l 1
 576 744.471595347 l 1
 576 646.738376663 l 1
 895 493.722116501 l 1
895 465.109828883 m 1
 895 551.757710722 l 1
 577 257.089232462 l 1
 577 178.218524535 l 1
 895 465.109828883 l 1
480 493.722116501 m 1
 480 593.184332475 l 1
 161 744.471595347 l 1
 161 646.738376663 l 1
 480 493.722116501 l 1
480 465.109828883 m 1
 480 551.757710722 l 1
 162 257.089232462 l 1
 162 178.218524535 l 1
 480 465.109828883 l 1
EndSplineSet
EndChar

StartChar: onequarter
Encoding: 188 188 123
Width: 1024
VWidth: 0
Flags: HW
LayerCount: 2
Fore
SplineSet
732.093045446 1455 m 1
 682.94096816 1455 l 1
 115.906954554 35 l 1
 165.05903184 35 l 1
 732.093045446 1455 l 1
332 1523 m 1
 332 1070 l 1
 336 1070 l 1
 336 1523 l 1
 332 1523 l 1
593 745 m 1
 593 404 l 1
 898 404 l 1
 898 32 l 1
 907 32 l 1
 907 743 l 1
 897 743 l 1
 897 420 l 1
 602 420 l 1
 602 745 l 1
 593 745 l 1
EndSplineSet
EndChar

StartChar: onehalf
Encoding: 189 189 124
Width: 1024
VWidth: 0
Flags: HW
LayerCount: 2
Fore
SplineSet
846.018520374 1428.39553881 m 1
 718.720701603 1454.28662059 l 1
 166.981479626 24.6044611897 l 1
 294.279298397 -1.2866205943 l 1
 846.018520374 1428.39553881 l 1
323 1523 m 1
 323 888 l 1
 356 888 l 1
 356 1523 l 1
 323 1523 l 1
328.084923457 1498.78071759 m 1
 307.289957399 1512.86763008 l 1
 251.705540065 1425.42385159 l 1
 272.940386532 1410.01146303 l 1
 328.084923457 1498.78071759 l 1
679 668 m 1
 679 628 l 1
 878 628 l 1
 878 382 l 1
 681 382 l 1
 681 25 l 1
 888 25 l 1
 888 65 l 1
 697 65 l 1
 697 342 l 1
 893 342 l 1
 893 668 l 1
 679 668 l 1
EndSplineSet
EndChar

StartChar: threequarters
Encoding: 190 190 125
Width: 1024
VWidth: 0
Flags: HW
LayerCount: 2
Fore
SplineSet
858.688668451 1395.72327339 m 1
 717.306354634 1450.62172503 l 1
 165.311331549 20.2767266131 l 1
 306.693645366 -34.6217250283 l 1
 858.688668451 1395.72327339 l 1
102 1315 m 1
 102 1297 l 1
 380 1297 l 1
 380 1059 l 1
 84 1059 l 1
 84 1040 l 1
 416 1040 l 1
 416 1528 l 1
 97 1528 l 1
 97 1509 l 1
 379 1509 l 1
 379 1315 l 1
 102 1315 l 1
668 664 m 1
 668 365 l 1
 933 365 l 1
 933 32 l 1
 964 32 l 1
 964 662 l 1
 932 662 l 1
 932 403 l 1
 700 403 l 1
 700 664 l 1
 668 664 l 1
EndSplineSet
EndChar

StartChar: questiondown
Encoding: 191 191 126
Width: 1024
VWidth: 0
Flags: HW
LayerCount: 2
Fore
SplineSet
630 1494 m 1
 430 1494 l 1
 430 1297.10020388 l 1
 630 1297.90020388 l 1
 630 1494 l 1
220 25 m 1
 807 25 l 1
 807 161 l 1
 220 161 l 1
 220 25 l 1
216 30 m 1
 360 30 l 1
 360 528 l 1
 216 528 l 1
 216 30 l 1
216 529 m 1
 630 529 l 1
 630 678 l 1
 216 678 l 1
 216 529 l 1
432 533 m 1
 630 533 l 1
 630 1102 l 1
 432 1102 l 1
 432 533 l 1
EndSplineSet
EndChar

StartChar: AE
Encoding: 198 198 133
Width: 1124
VWidth: 0
Flags: HW
LayerCount: 2
Fore
SplineSet
996 185 m 1
 687.768847882 185 l 1
 687.768847882 50 l 1
 996 50 l 1
 996 185 l 1
125 1498 m 1
 125 50 l 1
 274 50 l 1
 274 1498 l 1
 125 1498 l 1
186 1498 m 1
 186 1332 l 1
 974 1332 l 1
 974 1498 l 1
 186 1498 l 1
922 998 m 1
 204 998 l 1
 204 874 l 1
 922 874 l 1
 922 998 l 1
578.352191332 1498 m 1
 578.352191332 50 l 1
 751 50 l 1
 751 1498 l 1
 578.352191332 1498 l 1
EndSplineSet
EndChar

StartChar: Eth
Encoding: 208 208 143
Width: 1124
VWidth: 0
Flags: HW
LayerCount: 2
Fore
SplineSet
450.065370647 910 m 1
 0 910 l 1
 0 755 l 1
 450.065370647 755 l 1
 450.065370647 910 l 1
260.767784661 1498 m 1
 107 1498 l 1
 107 50 l 1
 260.767784661 50 l 1
 260.767784661 1498 l 1
916 1013.25683594 m 1
 458 1466.98242188 l 1
 458 1343.0546875 l 1
 916 836.356445312 l 1
 916 1013.25683594 l 1
913 929.255859375 m 1
 467.068147832 206.78125 l 1
 467.068147832 101.598632812 l 1
 913 776.059570312 l 1
 913 929.255859375 l 1
401.324076052 1498 m 1
 274.370006409 1498 l 1
 274.370006409 1349 l 1
 401.324076052 1349 l 1
 401.324076052 1498 l 1
410.392223884 200 m 1
 283.438154241 200 l 1
 283.438154241 50 l 1
 410.392223884 50 l 1
 410.392223884 200 l 1
EndSplineSet
EndChar

StartChar: multiply
Encoding: 215 215 150
Width: 1024
VWidth: 0
Flags: HW
LayerCount: 2
Fore
SplineSet
741.8683355 1298 m 1
 136.063242454 327 l 1
 278.10853364 327 l 1
 882.011569879 1298 l 1
 741.8683355 1298 l 1
281.111622652 1300 m 1
 138.110002618 1300 l 1
 748.853916931 323 l 1
 889.001593441 323 l 1
 281.111622652 1300 l 1
EndSplineSet
EndChar

StartChar: Oslash
Encoding: 216 216 151
Width: 1124
VWidth: 0
Flags: HW
LayerCount: 2
Fore
SplineSet
959.185546875 1556.84375 m 1
 817.846679688 1611.72558594 l 1
 35 -7.84375 l 1
 176.338867188 -62.7255859375 l 1
 959.185546875 1556.84375 l 1
252.592773438 1487 m 1
 101.592773438 1487 l 1
 101.592773438 50 l 1
 252.592773438 50 l 1
 252.592773438 1487 l 1
901.592773438 1487 m 1
 748.592773438 1487 l 1
 748.592773438 50 l 1
 901.592773438 50 l 1
 901.592773438 1487 l 1
808.592773438 1487 m 1
 165.592773438 1487 l 1
 165.592773438 1337 l 1
 808.592773438 1337 l 1
 808.592773438 1487 l 1
814.592773438 204 m 1
 141.592773438 204 l 1
 141.592773438 50 l 1
 814.592773438 50 l 1
 814.592773438 204 l 1
EndSplineSet
EndChar

StartChar: Thorn
Encoding: 222 222 157
Width: 1124
VWidth: 0
Flags: HW
LayerCount: 2
Fore
SplineSet
252 1492 m 1
 112 1492 l 1
 112 59 l 1
 252 59 l 1
 252 1492 l 1
847 1184 m 1
 191 1184 l 1
 191 1035 l 1
 847 1035 l 1
 847 1184 l 1
867 1183 m 1
 717 1183 l 1
 717 594 l 1
 867 594 l 1
 867 1183 l 1
866 659 m 1
 179 659 l 1
 179 534 l 1
 866 534 l 1
 866 659 l 1
EndSplineSet
EndChar

StartChar: germandbls
Encoding: 223 223 158
Width: 1124
VWidth: 0
Flags: HW
LayerCount: 2
Fore
SplineSet
219 1171 m 1
 18 1171 l 1
 18 1023 l 1
 219 1023 l 1
 219 1171 l 1
374.56063907 1498 m 1
 204 1498 l 1
 204 50 l 1
 374.56063907 50 l 1
 374.56063907 1498 l 1
805 1498 m 1
 432.125393367 1498 l 1
 432.125393367 1328 l 1
 805 1328 l 1
 805 1498 l 1
889 1498 m 1
 740 1498 l 1
 740 1023 l 1
 889 1023 l 1
 889 1498 l 1
690 826 m 1
 690 1012 l 1
 524.229000242 1012 l 1
 524.229000242 826 l 1
 690 826 l 1
890 798 m 1
 740 798 l 1
 740 225 l 1
 890 225 l 1
 890 798 l 1
890 251 m 1
 589.85282014 251 l 1
 589.85282014 90 l 1
 890 90 l 1
 890 251 l 1
EndSplineSet
EndChar

StartChar: ae
Encoding: 230 230 165
Width: 1124
VWidth: 0
Flags: HW
LayerCount: 2
Fore
SplineSet
867 973 m 1
 48 973 l 1
 48 824 l 1
 867 824 l 1
 867 973 l 1
630.453689797 973 m 1
 468.430259337 973 l 1
 468.430259337 50 l 1
 630.453689797 50 l 1
 630.453689797 973 l 1
868 574 m 1
 71 574 l 1
 71 425 l 1
 868 425 l 1
 868 574 l 1
222 550 m 1
 71 550 l 1
 71 50 l 1
 222 50 l 1
 222 550 l 1
989 201 m 1
 69 201 l 1
 69 50 l 1
 989 50 l 1
 989 201 l 1
968 973 m 1
 823 973 l 1
 823 425 l 1
 968 425 l 1
 968 973 l 1
EndSplineSet
EndChar

StartChar: eth
Encoding: 240 240 175
Width: 1124
VWidth: 0
Flags: HW
LayerCount: 2
Fore
SplineSet
403.088671963 1498 m 1
 249.328125 1498 l 1
 735.760742188 50 l 1
 884.671875 50 l 1
 403.088671963 1498 l 1
552.445120959 973 m 1
 228 973 l 1
 228 822 l 1
 552.445120959 822 l 1
 552.445120959 973 l 1
283 973 m 1
 132 973 l 1
 132 50 l 1
 283 50 l 1
 283 973 l 1
845 195 m 1
 228 195 l 1
 228 50 l 1
 845 50 l 1
 845 195 l 1
693 1366 m 1
 161 1366 l 1
 161 1229 l 1
 693 1229 l 1
 693 1366 l 1
EndSplineSet
EndChar

StartChar: divide
Encoding: 247 247 182
Width: 1024
VWidth: 0
Flags: HW
LayerCount: 2
Fore
SplineSet
623 405 m 1
 425 405 l 1
 425 226 l 1
 623 226 l 1
 623 405 l 1
617 1269 m 1
 401 1269 l 1
 401 1072 l 1
 617 1072 l 1
 617 1269 l 1
900 783 m 1
 124 783 l 1
 124 625 l 1
 900 625 l 1
 900 783 l 1
EndSplineSet
EndChar

StartChar: oslash
Encoding: 248 248 183
Width: 1124
VWidth: 0
Flags: HW
LayerCount: 2
Fore
SplineSet
978.080078125 1037.04101562 m 1
 858.061523438 1109.19921875 l 1
 9 23.8720703125 l 1
 128.122070312 -48.189453125 l 1
 978.080078125 1037.04101562 l 1
243.068359375 973 m 1
 93.068359375 973 l 1
 93.068359375 50 l 1
 243.068359375 50 l 1
 243.068359375 973 l 1
910.068359375 973 m 1
 758.068359375 973 l 1
 758.068359375 50 l 1
 910.068359375 50 l 1
 910.068359375 973 l 1
802.068359375 973 m 1
 216.068359375 973 l 1
 216.068359375 822 l 1
 802.068359375 822 l 1
 802.068359375 973 l 1
792.068359375 200 m 1
 220.068359375 200 l 1
 220.068359375 50 l 1
 792.068359375 50 l 1
 792.068359375 200 l 1
EndSplineSet
EndChar

StartChar: thorn
Encoding: 254 254 189
Width: 1124
VWidth: 0
Flags: HW
LayerCount: 2
Fore
SplineSet
323 984 m 1
 173 984 l 1
 173 -356 l 1
 323 -356 l 1
 323 984 l 1
916 642 m 1
 360 642 l 1
 360 493 l 1
 916 493 l 1
 916 642 l 1
914 6 m 1
 368 6 l 1
 368 -145 l 1
 914 -145 l 1
 914 6 l 1
914 572 m 1
 766 572 l 1
 766 -54 l 1
 914 -54 l 1
 914 572 l 1
EndSplineSet
EndChar

StartChar: dcaron
Encoding: 271 271 206
Width: 1124
VWidth: 0
Flags: HW
LayerCount: 2
Fore
SplineSet
814 1477 m 1
 652.728936988 1477 l 1
 652.728936988 50 l 1
 814 50 l 1
 814 1477 l 1
696.659654091 973 m 1
 149 973 l 1
 149 822 l 1
 696.659654091 822 l 1
 696.659654091 973 l 1
204 973 m 1
 53 973 l 1
 53 50 l 1
 204 50 l 1
 204 973 l 1
766 195 m 1
 149 195 l 1
 149 50 l 1
 766 50 l 1
 766 195 l 1
990 1446 m 1
 910 1446 l 1
 910 1264 l 1
 990 1264 l 1
 990 1446 l 1
EndSplineSet
EndChar

StartChar: Dcroat
Encoding: 272 272 207
Width: 1124
VWidth: 0
Flags: HW
LayerCount: 2
Fore
SplineSet
450.065370647 910 m 1
 0 910 l 1
 0 755 l 1
 450.065370647 755 l 1
 450.065370647 910 l 1
260.767784661 1498 m 1
 107 1498 l 1
 107 50 l 1
 260.767784661 50 l 1
 260.767784661 1498 l 1
916 1013.25683594 m 1
 458 1466.98242188 l 1
 458 1343.0546875 l 1
 916 836.356445312 l 1
 916 1013.25683594 l 1
913 929.255859375 m 1
 467.068147832 206.78125 l 1
 467.068147832 101.598632812 l 1
 913 776.059570312 l 1
 913 929.255859375 l 1
401.324076052 1498 m 1
 274.370006409 1498 l 1
 274.370006409 1349 l 1
 401.324076052 1349 l 1
 401.324076052 1498 l 1
410.392223884 200 m 1
 283.438154241 200 l 1
 283.438154241 50 l 1
 410.392223884 50 l 1
 410.392223884 200 l 1
EndSplineSet
EndChar

StartChar: dcroat
Encoding: 273 273 208
Width: 1124
VWidth: 0
Flags: HW
LayerCount: 2
Fore
SplineSet
893 1477 m 1
 740.273319405 1477 l 1
 740.273319405 50 l 1
 893 50 l 1
 893 1477 l 1
781 973 m 1
 228 973 l 1
 228 822 l 1
 781 822 l 1
 781 973 l 1
283 973 m 1
 132 973 l 1
 132 50 l 1
 283 50 l 1
 283 973 l 1
845 195 m 1
 228 195 l 1
 228 50 l 1
 845 50 l 1
 845 195 l 1
999 1353 m 1
 582.227479415 1353 l 1
 582.227479415 1202 l 1
 999 1202 l 1
 999 1353 l 1
EndSplineSet
EndChar

StartChar: uni0123
Encoding: 291 291 226
Width: 1074
VWidth: 0
Flags: HW
LayerCount: 2
Fore
SplineSet
439 973 m 1
 297 973 l 1
 297 50 l 1
 439 50 l 1
 439 973 l 1
803 973 m 1
 337 973 l 1
 337 823 l 1
 803 823 l 1
 803 973 l 1
825 973 m 1
 681 973 l 1
 681 -361 l 1
 825 -361 l 1
 825 973 l 1
767 198 m 1
 360 198 l 1
 360 50 l 1
 767 50 l 1
 767 198 l 1
776 -214 m 1
 291 -214 l 1
 291 -363 l 1
 776 -363 l 1
 776 -214 l 1
527 1446 m 1
 447 1446 l 1
 447 1198 l 1
 527 1198 l 1
 527 1446 l 1
EndSplineSet
EndChar

StartChar: Hbar
Encoding: 294 294 229
Width: 1124
VWidth: 0
Flags: HW
LayerCount: 2
Fore
SplineSet
239 1487 m 1
 89 1487 l 1
 89 50 l 1
 239 50 l 1
 239 1487 l 1
885 1487 m 1
 725 1487 l 1
 725 50 l 1
 885 50 l 1
 885 1487 l 1
755 998 m 1
 209 998 l 1
 209 843 l 1
 755 843 l 1
 755 998 l 1
953 1384 m 1
 28 1384 l 1
 28 1226 l 1
 953 1226 l 1
 953 1384 l 1
EndSplineSet
EndChar

StartChar: hbar
Encoding: 295 295 230
Width: 1124
VWidth: 0
Flags: HW
LayerCount: 2
Fore
SplineSet
331.438627625 1487 m 1
 174 1487 l 1
 174 56 l 1
 331.438627625 56 l 1
 331.438627625 1487 l 1
842 973 m 1
 316.035492458 973 l 1
 316.035492458 826 l 1
 842 826 l 1
 842 973 l 1
850 973 m 1
 701 973 l 1
 701 50 l 1
 850 50 l 1
 850 973 l 1
473.621413783 1379 m 1
 38 1379 l 1
 38 1221 l 1
 473.621413783 1221 l 1
 473.621413783 1379 l 1
EndSplineSet
EndChar

StartChar: dotlessi
Encoding: 305 305 240
Width: 1124
VWidth: 0
Flags: HW
LayerCount: 2
Fore
SplineSet
606.954509178 968 m 1
 417.045490822 968 l 1
 417.045490822 189 l 1
 606.954509178 189 l 1
 606.954509178 968 l 1
883 204 m 1
 141 204 l 1
 141 56 l 1
 883 56 l 1
 883 204 l 1
549.482043097 968 m 1
 191 968 l 1
 191 818 l 1
 549.482043097 818 l 1
 549.482043097 968 l 1
EndSplineSet
EndChar

StartChar: Lcaron
Encoding: 317 317 252
Width: 1124
VWidth: 0
Flags: HW
LayerCount: 2
Fore
SplineSet
201 1492 m 1
 53 1492 l 1
 53 50 l 1
 201 50 l 1
 201 1492 l 1
888 202 m 1
 162 202 l 1
 162 50 l 1
 888 50 l 1
 888 202 l 1
565.885102903 1446 m 1
 472.255554041 1446 l 1
 472.255554041 1264 l 1
 565.885102903 1264 l 1
 565.885102903 1446 l 1
EndSplineSet
EndChar

StartChar: lcaron
Encoding: 318 318 253
Width: 1074
VWidth: 0
Flags: HW
LayerCount: 2
Fore
SplineSet
717 209 m 1
 133 209 l 1
 133 59 l 1
 717 59 l 1
 717 209 l 1
500 1498 m 1
 350 1498 l 1
 350 136 l 1
 500 136 l 1
 500 1498 l 1
379 1498 m 1
 194 1498 l 1
 194 1349 l 1
 379 1349 l 1
 379 1498 l 1
710 1446 m 1
 630 1446 l 1
 630 1264 l 1
 710 1264 l 1
 710 1446 l 1
EndSplineSet
EndChar

StartChar: Lslash
Encoding: 321 321 256
Width: 1124
VWidth: 0
Flags: HW
LayerCount: 2
Fore
SplineSet
316.354991728 1492 m 1
 162.787109375 1492 l 1
 162.787109375 50 l 1
 316.354991728 50 l 1
 316.354991728 1492 l 1
997.787109375 202 m 1
 272.925862323 202 l 1
 272.925862323 50 l 1
 997.787109375 50 l 1
 997.787109375 202 l 1
420.893308276 1048.11328125 m 1
 16 889.879882812 l 1
 74.9111328125 763.220703125 l 1
 486.494826488 944.120117188 l 1
 420.893308276 1048.11328125 l 1
EndSplineSet
EndChar

StartChar: lslash
Encoding: 322 322 257
Width: 1124
VWidth: 0
Flags: HW
LayerCount: 2
Fore
SplineSet
819.385742188 209 m 1
 185.385742188 209 l 1
 185.385742188 59 l 1
 819.385742188 59 l 1
 819.385742188 209 l 1
592.227003068 1498 m 1
 411.520946074 1498 l 1
 411.520946074 136 l 1
 592.227003068 136 l 1
 592.227003068 1498 l 1
446.457450426 1498 m 1
 246.385742188 1498 l 1
 246.385742188 1349 l 1
 446.457450426 1349 l 1
 446.457450426 1498 l 1
897.771484375 1026.65917969 m 1
 821.071289062 1157.50097656 l 1
 112 798.43359375 l 1
 188.700195312 667.591796875 l 1
 897.771484375 1026.65917969 l 1
EndSplineSet
EndChar

StartChar: OE
Encoding: 338 338 273
Width: 1124
VWidth: 0
Flags: HW
LayerCount: 2
Fore
SplineSet
262 1498 m 1
 111 1498 l 1
 111 50 l 1
 262 50 l 1
 262 1498 l 1
704 1498 m 1
 534.051469339 1498 l 1
 534.051469339 50 l 1
 704 50 l 1
 704 1498 l 1
880 1498 m 1
 148 1498 l 1
 148 1349 l 1
 880 1349 l 1
 880 1498 l 1
888 200 m 1
 150 200 l 1
 150 50 l 1
 888 50 l 1
 888 200 l 1
850 834 m 1
 656 834 l 1
 656 684 l 1
 850 684 l 1
 850 834 l 1
EndSplineSet
EndChar

StartChar: oe
Encoding: 339 339 274
Width: 1124
VWidth: 0
Flags: HW
LayerCount: 2
Fore
SplineSet
824 620 m 1
 632.014669375 620 l 1
 632.014669375 471 l 1
 824 471 l 1
 824 620 l 1
999 973 m 1
 849 973 l 1
 849 470 l 1
 999 470 l 1
 999 973 l 1
253 973 m 1
 103 973 l 1
 103 50 l 1
 253 50 l 1
 253 973 l 1
636.5788761 973 m 1
 465.4211239 973 l 1
 465.4211239 50 l 1
 636.5788761 50 l 1
 636.5788761 973 l 1
859 973 m 1
 158 973 l 1
 158 823 l 1
 859 823 l 1
 859 973 l 1
999 200 m 1
 149 200 l 1
 149 50 l 1
 999 50 l 1
 999 200 l 1
EndSplineSet
EndChar

StartChar: tcaron
Encoding: 357 357 292
Width: 1124
VWidth: 0
Flags: HW
LayerCount: 2
Fore
SplineSet
525.286505392 1479 m 1
 346.779947537 1479 l 1
 346.779947537 50 l 1
 525.286505392 50 l 1
 525.286505392 1479 l 1
886 199 m 1
 527.650830662 199 l 1
 527.650830662 50 l 1
 886 50 l 1
 886 199 l 1
849 973 m 1
 70 973 l 1
 70 824 l 1
 849 824 l 1
 849 973 l 1
802 1446 m 1
 722 1446 l 1
 722 1291 l 1
 802 1291 l 1
 802 1446 l 1
EndSplineSet
EndChar

StartChar: florin
Encoding: 402 402 337
Width: 1124
VWidth: 0
Flags: HW
LayerCount: 2
Fore
SplineSet
593.231809401 973 m 1
 413.048293625 973 l 1
 413.048293625 -356 l 1
 593.231809401 -356 l 1
 593.231809401 973 l 1
957 973 m 1
 487.524146813 973 l 1
 487.524146813 831 l 1
 957 831 l 1
 957 973 l 1
860 534 m 1
 229 534 l 1
 229 381 l 1
 860 381 l 1
 860 534 l 1
595.634256278 -201 m 1
 167 -201 l 1
 167 -356 l 1
 595.634256278 -356 l 1
 595.634256278 -201 l 1
EndSplineSet
EndChar

StartChar: uni0237
Encoding: 567 567 502
Width: 1074
VWidth: 0
Flags: HW
LayerCount: 2
Fore
SplineSet
776 973 m 1
 627 973 l 1
 627 -361 l 1
 776 -361 l 1
 776 973 l 1
677 -209 m 1
 197 -209 l 1
 197 -356 l 1
 677 -356 l 1
 677 -209 l 1
348 -6 m 1
 198 -6 l 1
 198 -301 l 1
 348 -301 l 1
 348 -6 l 1
EndSplineSet
EndChar

StartChar: circumflex
Encoding: 710 710 632
Width: 1024
VWidth: 0
Flags: HW
LayerCount: 2
Fore
SplineSet
381.994456186 1918.92315502 m 1
 465.421461951 2133 l 1
 458.480104489 2133 l 1
 368.94285766 1924.36132107 l 1
 381.994456186 1918.92315502 l 1
491.987687145 2117.26832623 m 1
 474.740723875 2102.99497731 l 1
 560.069905224 1917.42471885 l 1
 573.806557755 1922.46149144 l 1
 491.987687145 2117.26832623 l 1
EndSplineSet
EndChar

StartChar: caron
Encoding: 711 711 633
Width: 1024
VWidth: 0
Flags: HW
LayerCount: 2
Fore
SplineSet
488.468638552 1108 m 1
 513.417216461 1108 l 1
 398.047776511 1403.94769378 l 1
 366.903432361 1390.77124049 l 1
 488.468638552 1108 l 1
622.014288394 1405.48457892 m 1
 505.688233592 1152.86605692 l 1
 540.123471251 1123.94045729 l 1
 653.820320149 1393.65925942 l 1
 622.014288394 1405.48457892 l 1
EndSplineSet
EndChar

StartChar: uni02C9
Encoding: 713 713 634
Width: 1024
VWidth: 0
Flags: HW
LayerCount: 2
Fore
SplineSet
761 1605 m 1
 251 1605 l 1
 251 1573 l 1
 761 1573 l 1
 761 1605 l 1
EndSplineSet
EndChar

StartChar: uni02CA
Encoding: 714 714 635
Width: 1024
VWidth: 0
Flags: HW
LayerCount: 2
Fore
SplineSet
606.262534785 2124.04202985 m 1
 561.921095684 2146.46185861 l 1
 454.549450163 1936.67418197 l 1
 498.267045492 1913.8218026 l 1
 606.262534785 2124.04202985 l 1
EndSplineSet
EndChar

StartChar: uni02CB
Encoding: 715 715 636
Width: 1024
VWidth: 0
Flags: HW
LayerCount: 2
Fore
SplineSet
501.953686884 2120.28118071 m 1
 454.596915295 2096.0880474 l 1
 551.981133307 1904.56575198 l 1
 598.467596114 1928.06440351 l 1
 501.953686884 2120.28118071 l 1
EndSplineSet
EndChar

StartChar: breve
Encoding: 728 728 637
Width: 1024
VWidth: 0
Flags: HW
LayerCount: 2
Fore
SplineSet
796 1601.30286409 m 1
 681 1533.69680349 l 1
 681 1517.34711382 l 1
 796 1564.74105321 l 1
 796 1601.30286409 l 1
631 1523 m 1
 357 1523 l 1
 357 1505 l 1
 631 1505 l 1
 631 1523 l 1
307 1532.25959625 m 1
 186 1590.28298806 l 1
 186 1564.96711225 l 1
 307 1516.85015319 l 1
 307 1532.25959625 l 1
EndSplineSet
EndChar

StartChar: dotaccent
Encoding: 729 729 638
Width: 1024
VWidth: 0
Flags: HW
LayerCount: 2
Fore
SplineSet
540 1028 m 1
 422 1028 l 1
 422 927 l 1
 540 927 l 1
 540 1028 l 1
EndSplineSet
EndChar

StartChar: ring
Encoding: 730 730 639
Width: 1024
VWidth: 0
Flags: HW
LayerCount: 2
Fore
SplineSet
442 1781 m 1
 640 1781 l 1
 640 1601 l 1
 442 1601 l 1
 442 1781 l 1
697 1822 m 1
 387 1822 l 1
 387 1562 l 1
 697 1562 l 1
 697 1822 l 1
EndSplineSet
EndChar

StartChar: ogonek
Encoding: 731 731 640
Width: 1024
VWidth: 0
Flags: HW
LayerCount: 2
Fore
SplineSet
776 -313 m 1
 284 -313 l 1
 284 -381 l 1
 776 -381 l 1
 776 -313 l 1
352 -25 m 1
 284 -25 l 1
 284 -381 l 1
 352 -381 l 1
 352 -25 l 1
776 -25 m 1
 284 -25 l 1
 284 -96 l 1
 776 -96 l 1
 776 -25 l 1
EndSplineSet
EndChar

StartChar: tilde
Encoding: 732 732 641
Width: 1024
VWidth: 0
Flags: HW
LayerCount: 2
Fore
SplineSet
614 1536.99156783 m 1
 384 1577.24156783 l 1
 384 1549.00843217 l 1
 614 1508.75843217 l 1
 614 1536.99156783 l 1
334 1575.05749024 m 1
 197.187237358 1541.21433317 l 1
 201.508496933 1513.12614593 l 1
 334 1547.36552313 l 1
 334 1575.05749024 l 1
750.65237709 1622.29366752 m 1
 664 1546.64476688 l 1
 664 1530.17338494 l 1
 755.797719605 1601.71229746 l 1
 750.65237709 1622.29366752 l 1
EndSplineSet
EndChar

StartChar: hungarumlaut
Encoding: 733 733 642
Width: 1024
VWidth: 0
Flags: HW
LayerCount: 2
Fore
SplineSet
265 345 m 1
 265 147 l 1
 359 147 l 1
 359 345 l 1
 265 345 l 1
665 345 m 1
 665 147 l 1
 759 147 l 1
 759 345 l 1
 665 345 l 1
EndSplineSet
EndChar

StartChar: gravecomb
Encoding: 768 768 648
Width: 1024
VWidth: 0
Flags: W
LayerCount: 2
Fore
SplineSet
501.953686884 2120.28118071 m 1
 454.596915295 2096.0880474 l 1
 551.981133307 1904.56575198 l 1
 598.467596114 1928.06440351 l 1
 501.953686884 2120.28118071 l 1
EndSplineSet
EndChar

StartChar: acutecomb
Encoding: 769 769 649
Width: 1024
VWidth: 0
Flags: W
LayerCount: 2
Fore
SplineSet
606.262534785 2124.04202985 m 1
 561.921095684 2146.46185861 l 1
 454.549450163 1936.67418197 l 1
 498.267045492 1913.8218026 l 1
 606.262534785 2124.04202985 l 1
EndSplineSet
EndChar

StartChar: uni0302
Encoding: 770 770 650
Width: 1024
VWidth: 0
Flags: W
LayerCount: 2
Fore
SplineSet
381.994456186 1918.92315502 m 1
 465.421461951 2133 l 1
 458.480104489 2133 l 1
 368.94285766 1924.36132107 l 1
 381.994456186 1918.92315502 l 1
491.987687145 2117.26832623 m 1
 474.740723875 2102.99497731 l 1
 560.069905224 1917.42471885 l 1
 573.806557755 1922.46149144 l 1
 491.987687145 2117.26832623 l 1
EndSplineSet
EndChar

StartChar: tildecomb
Encoding: 771 771 651
Width: 1024
VWidth: 0
Flags: W
LayerCount: 2
Fore
SplineSet
655 1932.97679894 m 1
 355 1985.26251323 l 1
 355 1937.02320106 l 1
 655 1884.73748677 l 1
 655 1932.97679894 l 1
305 1983.17119057 m 1
 120.182167019 1938.1315506 l 1
 127.540240085 1890.05880657 l 1
 305 1935.41847614 l 1
 305 1983.17119057 l 1
822.690043567 2046.14300161 m 1
 705 1942.69570217 l 1
 705 1906.16108656 l 1
 832.796899613 2005.71557742 l 1
 822.690043567 2046.14300161 l 1
EndSplineSet
EndChar

StartChar: uni0304
Encoding: 772 772 652
Width: 1024
VWidth: 0
Flags: W
LayerCount: 2
Fore
SplineSet
761 1605 m 1
 251 1605 l 1
 251 1573 l 1
 761 1573 l 1
 761 1605 l 1
EndSplineSet
EndChar

StartChar: uni0306
Encoding: 774 774 653
Width: 1024
VWidth: 0
Flags: W
LayerCount: 2
Fore
SplineSet
796 1601.30286409 m 1
 681 1533.69680349 l 1
 681 1517.34711382 l 1
 796 1564.74105321 l 1
 796 1601.30286409 l 1
631 1523 m 1
 357 1523 l 1
 357 1505 l 1
 631 1505 l 1
 631 1523 l 1
307 1532.25959625 m 1
 186 1590.28298806 l 1
 186 1564.96711225 l 1
 307 1516.85015319 l 1
 307 1532.25959625 l 1
EndSplineSet
EndChar

StartChar: uni0307
Encoding: 775 775 654
Width: 1024
VWidth: 0
Flags: W
LayerCount: 2
Fore
SplineSet
599 1763 m 1
 425 1763 l 1
 425 1611 l 1
 599 1611 l 1
 599 1763 l 1
EndSplineSet
EndChar

StartChar: uni0308
Encoding: 776 776 655
Width: 1024
VWidth: 0
Flags: W
LayerCount: 2
Fore
SplineSet
422 1713 m 1
 360 1713 l 1
 360 1662 l 1
 422 1662 l 1
 422 1713 l 1
664 1713 m 1
 602 1713 l 1
 602 1662 l 1
 664 1662 l 1
 664 1713 l 1
EndSplineSet
EndChar

StartChar: uni030A
Encoding: 778 778 656
Width: 1024
VWidth: 0
Flags: W
LayerCount: 2
Fore
SplineSet
442 1781 m 1
 640 1781 l 1
 640 1601 l 1
 442 1601 l 1
 442 1781 l 1
697 1822 m 1
 387 1822 l 1
 387 1562 l 1
 697 1562 l 1
 697 1822 l 1
EndSplineSet
EndChar

StartChar: uni030C
Encoding: 780 780 658
Width: 1024
VWidth: 0
Flags: W
LayerCount: 2
Fore
SplineSet
508.480104489 1374 m 1
 515.421461951 1374 l 1
 431.994456186 1588.07684498 l 1
 418.94285766 1582.63867893 l 1
 508.480104489 1374 l 1
610.069905224 1589.57528115 m 1
 524.740723875 1404.00502269 l 1
 541.987687145 1389.73167377 l 1
 623.806557755 1584.53850856 l 1
 610.069905224 1589.57528115 l 1
EndSplineSet
EndChar

StartChar: dotbelowcomb
Encoding: 803 803 659
Width: 1024
VWidth: 0
Flags: HW
LayerCount: 2
Fore
SplineSet
619 -229 m 1
 405 -229 l 1
 405 -426 l 1
 619 -426 l 1
 619 -229 l 1
EndSplineSet
EndChar

StartChar: uni0326
Encoding: 806 806 660
Width: 1024
VWidth: 0
Flags: W
LayerCount: 2
Fore
SplineSet
620 -25 m 1
 422 -25 l 1
 422 -205 l 1
 620 -205 l 1
 620 -25 l 1
611.134092064 -239.082906776 m 1
 505.503219526 -144.949272065 l 1
 410.73740335 -370.620410586 l 1
 510.419043795 -412.444875108 l 1
 611.134092064 -239.082906776 l 1
EndSplineSet
EndChar

StartChar: uni0327
Encoding: 807 807 661
Width: 1024
VWidth: 0
Flags: W
LayerCount: 2
Fore
SplineSet
708 155 m 1
 602 155 l 1
 602 -119 l 1
 708 -119 l 1
 708 155 l 1
999 -313 m 1
 603 -313 l 1
 603 -381 l 1
 999 -381 l 1
 999 -313 l 1
999 -25 m 1
 897 -25 l 1
 897 -347 l 1
 999 -347 l 1
 999 -25 l 1
999 -25 m 1
 603 -25 l 1
 603 -131 l 1
 999 -131 l 1
 999 -25 l 1
EndSplineSet
EndChar

StartChar: uni0328
Encoding: 808 808 662
Width: 1024
VWidth: 0
Flags: W
LayerCount: 2
Fore
SplineSet
999 -313 m 1
 507 -313 l 1
 507 -381 l 1
 999 -381 l 1
 999 -313 l 1
575 -25 m 1
 507 -25 l 1
 507 -381 l 1
 575 -381 l 1
 575 -25 l 1
999 -25 m 1
 507 -25 l 1
 507 -96 l 1
 999 -96 l 1
 999 -25 l 1
EndSplineSet
EndChar

StartChar: uni0331
Encoding: 817 817 663
Width: 1024
VWidth: 0
Flags: HW
LayerCount: 2
Fore
SplineSet
761 -195 m 1
 251 -195 l 1
 251 -223 l 1
 761 -223 l 1
 761 -195 l 1
EndSplineSet
EndChar
